<?xml version="1.0" encoding="UTF-8" standalone="no"?>
<svg
   xmlns:dc="http://purl.org/dc/elements/1.1/"
   xmlns:cc="http://creativecommons.org/ns#"
   xmlns:rdf="http://www.w3.org/1999/02/22-rdf-syntax-ns#"
   xmlns:svg="http://www.w3.org/2000/svg"
   xmlns="http://www.w3.org/2000/svg"
   id="svg8"
   version="1.1"
   viewBox="0 0 210 297"
   height="297mm"
   width="210mm">
  <defs
     id="defs2" />
  <metadata
     id="metadata5">
    <rdf:RDF>
      <cc:Work
         rdf:about="">
        <dc:format>image/svg+xml</dc:format>
        <dc:type
           rdf:resource="http://purl.org/dc/dcmitype/StillImage" />
        <dc:title></dc:title>
      </cc:Work>
    </rdf:RDF>
  </metadata>
  <g
     id="layer1">
    <g
       style="stroke-width:0.99624276;fill:#ffffff"
       transform="matrix(1.0019347,0,0,1.0056116,1.1209102,-7.0723652)"
       id="g826">
      <path
         id="path830"
         d="m 103.71666,249.82056 c 0,-0.0876 0.15258,-0.28351 0.33906,-0.43546 0.28239,-0.23009 0.29279,-1.06299 0.0622,-4.98355 -0.19641,-3.33959 -0.36722,-4.73735 -0.5879,-4.81079 -0.84165,-0.28011 -0.0794,-0.52261 2.14256,-0.68165 3.3903,-0.24265 4.51514,0.35737 4.51283,2.40729 -9.9e-4,0.86158 -0.8033,2.4425 -1.23958,2.4425 -0.13887,0 -0.25249,0.11072 -0.25249,0.24605 0,0.39066 2.13828,3.0972 3.1458,3.98181 0.82096,0.72082 1.03033,0.78977 1.99611,0.6574 0.59342,-0.0813 1.07894,-0.0969 1.07894,-0.0346 0,0.30944 -1.58558,0.87255 -2.45689,0.87255 -1.22966,0 -1.96317,-0.58628 -3.90432,-3.12062 -0.9294,-1.21341 -1.56161,-1.82913 -1.78867,-1.742 -0.19315,0.0741 -0.50999,0.13476 -0.70409,0.13476 -0.27523,0 -0.3529,0.4381 -0.3529,1.99068 0,1.61932 0.0876,2.07829 0.46966,2.46033 0.46032,0.46032 0.45166,0.47263 -0.43546,0.61935 -1.18558,0.19607 -2.02487,0.1944 -2.02487,-0.004 z m 4.39794,-6.19203 c 1.04749,-0.6855 1.05552,-2.57425 0.0151,-3.5422 -0.60145,-0.55954 -2.13914,-0.93585 -2.55425,-0.6251 -0.15647,0.11714 -0.21913,1.09945 -0.16083,2.5213 l 0.0955,2.32939 1.03175,-0.16467 c 0.56746,-0.0906 1.27521,-0.32399 1.57276,-0.51872 z m -12.920515,5.90501 c -1.251985,-0.0834 -1.401323,-0.20046 -0.824182,-0.64611 0.270899,-0.20918 0.417626,-1.39413 0.604235,-4.8797 0.223463,-4.17399 0.207495,-4.64658 -0.171156,-5.06598 -0.405062,-0.44865 -0.350326,-0.45712 1.8219,-0.28195 1.23173,0.0993 2.595991,0.32665 3.031693,0.50515 1.538035,0.63013 2.006305,2.90301 0.819405,3.97714 -0.48906,0.44259 -0.486758,0.45113 0.24105,0.89374 0.84218,0.51216 1.34726,1.9507 1.10688,3.1526 -0.0836,0.41786 -0.46334,1.13287 -0.84393,1.58891 -0.67602,0.81004 -0.73708,0.82923 -2.647955,0.83204 -1.075788,0.001 -2.487861,-0.0325 -3.13794,-0.0758 z m 4.529334,-0.73829 c 1.037451,-0.84008 0.898101,-3.68963 -0.208861,-4.27071 -0.220734,-0.11587 -0.973204,-0.28786 -1.672159,-0.3822 l -1.270827,-0.17153 -0.157231,0.95159 c -0.260554,1.5769 -0.185193,3.48516 0.148333,3.75594 0.77205,0.6268 2.454215,0.68902 3.160745,0.11691 z m -0.485777,-5.78286 c 0.333737,-0.33373 0.497669,-0.82944 0.497669,-1.50488 0,-1.2694 -0.912966,-2.22763 -2.122405,-2.22763 -0.956885,0 -1.103973,0.35477 -1.109044,2.67497 l -0.0034,1.55521 h 1.119754 c 0.787977,0 1.267212,-0.14745 1.617423,-0.49767 z m 17.043758,5.12813 c -3.87975,-1.97173 -3.65558,-7.83607 0.38626,-10.10471 1.55388,-0.87217 4.1653,-0.88735 5.54084,-0.0322 2.22016,1.38025 3.03773,4.48615 1.8511,7.03225 -0.3424,0.73469 -0.86483,1.58764 -1.16095,1.89546 -0.86245,0.8965 -2.48996,1.60157 -3.98508,1.72642 -1.13993,0.0952 -1.60819,0.003 -2.63217,-0.51722 z m 5.10014,-0.86193 c 1.94219,-1.04161 2.8835,-3.19293 2.2444,-5.12945 -0.89001,-2.69674 -4.55913,-4.59594 -6.74134,-3.48942 -1.76155,0.89323 -2.54215,2.06441 -2.50805,3.763 0.0286,1.42721 0.54424,2.57034 1.66468,3.69079 1.63879,1.63879 3.6421,2.07584 5.34031,1.16508 z m -42.983771,-0.46732 c -1.539663,-0.36193 -2.799386,-0.74888 -2.799386,-0.85988 0,-0.111 0.160418,-0.20182 0.356482,-0.20182 0.427975,0 0.378363,0.16321 1.53911,-5.06309 0.754182,-3.39573 0.874897,-4.28213 0.635386,-4.66565 -0.3799,-0.60831 -0.370877,-0.60778 3.139003,0.18444 3.582457,0.8086 4.794942,1.35242 5.90394,2.64803 1.933661,2.25905 1.325047,5.50273 -1.452185,7.73959 -0.841752,0.67797 -1.157187,0.77263 -2.737177,0.82136 -1.22488,0.0378 -2.665061,-0.15161 -4.585173,-0.60298 z m 5.17435,-0.0653 c 1.059161,-0.29424 2.308851,-1.52389 2.837945,-2.79244 0.801618,-1.92193 0.23482,-4.12961 -1.437122,-5.5976 -1.134677,-0.99626 -5.144376,-2.29928 -5.144376,-1.67176 0,0.0778 -0.396662,1.95338 -0.881471,4.16797 -0.484809,2.21459 -0.820946,4.26913 -0.746973,4.56565 0.08841,0.35437 0.497067,0.67034 1.192514,0.92204 1.900882,0.68797 2.837423,0.77898 4.179483,0.40614 z m 45.037511,-4.42094 c -3.31947,-4.29642 -4.1981,-5.28113 -4.724,-5.29438 -0.44354,-0.0112 0.77412,-0.57342 1.78403,-0.82377 0.53173,-0.13181 0.64783,-0.0902 0.53914,0.19301 -0.0833,0.21721 0.83607,1.61648 2.30835,3.51309 l 2.44687,3.1521 0.16818,-1.08388 c 0.0925,-0.59613 0.17648,-2.0579 0.18663,-3.24836 0.0163,-1.91487 -0.0462,-2.23422 -0.54207,-2.76928 -0.30829,-0.33264 -0.78418,-0.65671 -1.05755,-0.72016 -0.44038,-0.10221 -0.41778,-0.14796 0.19824,-0.40137 1.38228,-0.56863 1.86755,-0.60771 1.95734,-0.15762 0.0882,0.44208 4.69878,6.54564 4.96402,6.57142 0.0834,0.008 0.13936,-1.94353 0.12441,-4.33697 l -0.0272,-4.35171 0.6843,-0.23878 c 0.6926,-0.24168 0.88891,-0.0711 0.43761,0.38015 -0.13748,0.13748 -0.32034,2.69632 -0.41307,5.78041 -0.11475,3.81616 -0.25058,5.50593 -0.43762,5.44414 -0.14917,-0.0493 -1.33499,-1.44581 -2.63515,-3.10341 -1.30015,-1.6576 -2.42421,-3.07129 -2.49789,-3.14153 -0.0737,-0.0702 -0.1661,1.68686 -0.20536,3.90467 -0.0393,2.2178 -0.15115,4.11497 -0.24864,4.21591 -0.0975,0.10095 -1.45225,-1.46671 -3.01059,-3.48368 z m -58.485602,-2.64901 -2.363926,-5.57573 -0.692603,1.78109 c -1.68002,4.32033 -2.136392,5.81993 -1.856381,6.09994 0.489218,0.48922 0.03921,0.55112 -0.958699,0.13189 -0.868385,-0.36482 -0.916554,-0.42857 -0.454489,-0.60142 0.493295,-0.18453 1.877371,-3.46916 3.237429,-7.68291 l 0.434204,-1.34525 -0.574275,-0.46502 c -0.811959,-0.65748 -0.432362,-0.85731 0.67565,-0.35567 1.022744,0.46303 0.761142,-0.0316 3.807426,7.19908 l 1.553707,3.68789 1.357366,-3.65824 c 1.063408,-2.86599 1.286324,-3.70215 1.029321,-3.86099 -0.588479,-0.36369 -0.08971,-0.46903 0.852155,-0.17997 0.999145,0.30665 1.170061,0.57241 0.485016,0.75416 -0.308408,0.0818 -0.943667,1.50457 -2.177301,4.87637 -0.958012,2.61845 -1.797828,4.76301 -1.866257,4.76566 -0.06843,0.003 -1.188184,-2.50424 -2.488343,-5.57088 z m -9.580121,0.79354 c -1.258291,-0.6392 -1.240009,-0.61963 -0.931439,-0.99702 0.142577,-0.17438 0.298501,-1.32227 0.346501,-2.55086 l 0.08727,-2.23381 -1.230244,-0.66916 -1.230244,-0.66915 -1.815297,1.62468 c -0.99841,0.89358 -1.753903,1.72401 -1.678872,1.84542 0.202862,0.32823 -0.07399,0.26993 -0.962852,-0.20278 l -0.796355,-0.42351 0.668802,-0.13637 c 0.38107,-0.0777 2.403869,-1.66187 4.701799,-3.68225 2.218149,-1.95024 4.128702,-3.54589 4.245676,-3.54589 0.293376,0 0.273997,0.42052 -0.285657,6.19842 -0.368469,3.80409 -0.421214,5.16386 -0.21017,5.41816 0.459647,0.55384 0.150042,0.56205 -0.908917,0.0241 z m -0.07439,-7.9704 c 0.05182,-0.85536 0.07671,-1.58692 0.05531,-1.62569 -0.0214,-0.0388 -0.582571,0.42173 -1.247036,1.02331 l -1.208118,1.09378 0.988288,0.52091 c 0.543556,0.2865 1.062321,0.52586 1.152809,0.53191 0.09049,0.006 0.206926,-0.68885 0.258751,-1.54422 z m 86.924123,6.84295 c 0.24751,-0.58507 0.20562,-1.14568 -0.50546,-6.76442 -0.33661,-2.65977 -0.56289,-4.88508 -0.50283,-4.94514 0.1125,-0.1125 2.88823,2.05325 6.6005,5.15001 1.23378,1.02921 2.34839,1.76546 2.67497,1.76694 1.05866,0.005 0.6101,0.43972 -1.493,1.44759 -0.10265,0.0492 -0.18663,-0.0853 -0.18663,-0.29882 0,-0.21354 -0.30793,-0.5863 -0.68429,-0.82836 -0.37636,-0.24207 -1.05816,-0.77653 -1.51511,-1.1877 -1.3141,-1.18246 -1.42804,-1.20203 -2.71344,-0.46592 -0.65098,0.3728 -1.22404,0.70767 -1.27347,0.74414 -0.16387,0.12094 0.51794,4.44333 0.7458,4.72812 0.14624,0.18278 0.01,0.41971 -0.39399,0.6843 -0.79202,0.51895 -0.98231,0.51118 -0.75305,-0.0307 z m 2.34677,-7.22125 c -0.006,-0.0999 -0.57578,-0.61761 -1.26656,-1.15054 l -1.25595,-0.96896 0.17787,1.46663 c 0.0978,0.80665 0.22597,1.54978 0.28476,1.65141 0.12488,0.21588 2.07557,-0.72973 2.05988,-0.99854 z m 7.96489,1.32157 c 0.24665,-0.29721 0.015,-0.7519 -1.27592,-2.50483 -0.8675,-1.17794 -1.7422,-2.38623 -1.94378,-2.6851 -1.52678,-2.26361 -2.28185,-3.12688 -2.62112,-2.99669 -0.8954,0.3436 -0.22069,-0.38593 1.48255,-1.603 2.79578,-1.99777 3.91547,-2.13769 5.09607,-0.63679 0.43758,0.55628 0.53319,0.96738 0.48179,2.07146 l -0.0641,1.37745 2.35027,0.80526 c 2.98348,1.02221 3.56704,1.02733 4.48996,0.0393 0.5135,-0.5497 0.72192,-0.6564 0.72192,-0.36959 0,0.22177 -0.36399,0.8004 -0.80886,1.28584 -1.18257,1.2904 -2.18143,1.33796 -5.28635,0.25169 -2.27171,-0.79477 -2.5357,-0.83828 -3.04822,-0.50247 -0.30861,0.20222 -0.56111,0.45949 -0.56111,0.57173 0,0.11225 0.56023,1.00182 1.24495,1.97683 0.85988,1.22442 1.36017,1.72855 1.61743,1.62983 0.71574,-0.27466 0.34543,0.2892 -0.63564,0.96786 -1.09041,0.7543 -1.73864,0.92222 -1.23981,0.32118 z m 0.25775,-6.85403 c 0.57886,-1.08161 0.007,-2.46221 -1.2998,-3.13798 -0.83154,-0.43001 -1.77226,-0.29658 -2.65516,0.3766 l -0.59519,0.45381 1.41327,1.91103 1.41328,1.91103 0.73763,-0.52524 c 0.4057,-0.28888 0.84939,-0.73405 0.98597,-0.98925 z m -112.302701,5.27287 c -1.022418,-0.78309 -1.120931,-0.92917 -0.673211,-0.99829 0.288456,-0.0445 1.029435,-0.71638 1.646616,-1.49301 1.824996,-2.29644 1.845358,-2.06954 -0.333639,-3.71806 -1.061739,-0.80326 -2.061486,-1.5379 -2.22166,-1.63254 -0.178753,-0.10562 -0.832187,0.52414 -1.691942,1.63064 -1.061236,1.36581 -1.366419,1.93935 -1.259213,2.36649 0.132942,0.52969 0.07443,0.51487 -0.967627,-0.24506 -1.241161,-0.90513 -1.353266,-1.11169 -0.665908,-1.22699 0.669239,-0.11227 6.063711,-7.3819 5.911029,-7.96575 -0.15901,-0.60806 -0.0501,-0.57697 1.257651,0.35899 0.974689,0.69759 1.056483,0.81974 0.595271,0.88892 -0.522037,0.0783 -3.097049,3.17219 -2.956052,3.5517 0.09635,0.25932 4.111054,3.21326 4.349741,3.20045 0.363129,-0.0195 2.437061,-3.20963 2.417044,-3.71791 -0.02574,-0.65359 0.01884,-0.64278 1.196729,0.29014 0.906971,0.71833 0.95375,0.80883 0.504042,0.97519 -0.272643,0.10086 -1.748562,1.83907 -3.279818,3.8627 -2.208758,2.91898 -2.754489,3.79732 -2.640792,4.25032 0.07882,0.31406 0.113185,0.56389 0.07636,0.5552 -0.03682,-0.009 -0.605904,-0.4286 -1.264623,-0.93313 z m 122.333461,-6.11134 c 0.1056,-0.27519 -0.77545,-1.48173 -2.82937,-3.87459 -1.6405,-1.91123 -3.09701,-3.54559 -3.23669,-3.63192 -0.389,-0.24041 -2.47684,1.57461 -2.31036,2.00846 0.17282,0.45036 -0.14257,0.45869 -0.72172,0.0191 -0.49461,-0.37546 -0.56389,-0.64895 -0.16441,-0.64895 0.39483,0 6.15238,-5.04428 6.17745,-5.41215 0.0223,-0.32775 0.51641,-0.44545 0.52226,-0.12442 0.002,0.10265 0.0713,0.44024 0.1544,0.7502 0.11732,0.43782 0.0658,0.53087 -0.23104,0.41697 -0.23413,-0.0898 -0.77417,0.20765 -1.3948,0.76835 -1.154,1.04257 -1.20616,0.85054 0.88273,3.24963 0.70452,0.80915 1.98221,2.28484 2.83931,3.27932 1.17553,1.36397 1.6708,1.77246 2.0161,1.66286 0.25176,-0.0799 0.45775,-0.0863 0.45775,-0.0142 0,0.19635 -1.30016,1.38843 -1.84178,1.68867 -0.38988,0.21613 -0.44619,0.19196 -0.31983,-0.13732 z M 36.119911,223.91436 c -0.427336,-0.2395 -1.370525,-0.95395 -2.095977,-1.58766 l -1.319003,-1.15219 1.104521,-1.24581 c 0.607486,-0.68519 1.140771,-1.21288 1.185078,-1.17264 0.04431,0.0402 -0.09566,0.41393 -0.311043,0.83043 -0.634045,1.2261 -0.494804,1.92295 0.603737,3.02149 1.216123,1.21612 2.540195,1.37755 3.440306,0.41942 0.745077,-0.7931 0.683366,-1.3934 -0.355263,-3.45584 -1.109065,-2.20231 -1.052019,-3.15322 0.26194,-4.3664 1.435309,-1.32522 3.371937,-1.0072 4.732983,0.77722 0.561428,0.73607 0.605835,0.92845 0.359051,1.55548 l -0.281611,0.71552 -0.356637,-1.19198 c -0.575698,-1.92413 -2.316613,-2.7094 -3.661445,-1.65156 -0.877146,0.68997 -0.832732,1.38283 0.215276,3.3583 0.479007,0.90292 0.870503,1.99628 0.86999,2.42971 -0.0012,1.1009 -0.847035,2.36929 -1.862784,2.79369 -1.115576,0.46612 -1.585311,0.45178 -2.529119,-0.0772 z M 173.2003,220.91672 c 0.0917,-0.72415 -6.43868,-7.34832 -7.07912,-7.18084 -0.67665,0.17695 -0.53905,-0.14172 0.49884,-1.15519 1.01496,-0.99108 1.37047,-1.15648 1.12809,-0.52483 -0.22241,0.57959 6.58307,7.36808 7.19258,7.17463 0.71269,-0.2262 0.46862,0.20078 -0.70628,1.23561 -0.93101,0.82001 -1.08961,0.88912 -1.03411,0.45062 z M 30.833322,219.23931 c -0.509697,-0.58052 -0.727679,-1.00058 -0.549968,-1.05981 0.282848,-0.0943 2.27745,-3.81832 2.256488,-4.21299 -0.0056,-0.10568 -0.435861,-0.66255 -0.956106,-1.23749 l -0.945901,-1.04534 -2.092114,0.77015 c -1.150663,0.42359 -2.183988,0.92614 -2.296276,1.11679 -0.164959,0.28008 -0.319422,0.23736 -0.804413,-0.22248 -0.767205,-0.72741 -0.768069,-0.99181 -0.0026,-0.79969 0.420615,0.10556 2.175067,-0.43691 5.730034,-1.77173 2.81809,-1.05814 5.178177,-1.86951 5.244638,-1.80304 0.173042,0.17303 -0.391185,1.44787 -2.54237,5.74432 -1.042091,2.08132 -1.962733,4.16644 -2.045871,4.6336 l -0.151162,0.84938 -0.844365,-0.96167 z m 3.365859,-8.75103 c -0.10609,-0.10609 -2.893306,0.91099 -2.893306,1.05579 0,0.0538 0.358209,0.50586 0.796018,1.0045 l 0.796019,0.90661 0.695977,-1.43811 c 0.382787,-0.79096 0.655168,-1.47891 0.605292,-1.52879 z m 140.958119,6.63069 c -1.11232,-1.00564 -1.27292,-1.60881 -0.23475,-0.88165 0.88004,0.61641 1.82949,0.49047 2.8131,-0.37315 1.38298,-1.21427 1.58312,-2.9933 0.4349,-3.86566 -0.6685,-0.5079 -1.2927,-0.40234 -3.14859,0.53245 -1.95702,0.98572 -2.92625,1.0797 -3.97884,0.38583 -1.93939,-1.27845 -1.84487,-3.76227 0.20262,-5.32396 0.75471,-0.57565 0.95468,-0.62599 1.49987,-0.37759 0.77611,0.35362 0.6053,0.71151 -0.33959,0.71151 -0.85205,0 -2.2506,1.4535 -2.2506,2.33903 0,0.83689 0.9152,1.89116 1.6417,1.89116 0.33563,0 1.38847,-0.39192 2.33965,-0.87092 0.95118,-0.47901 2.04015,-0.86927 2.41992,-0.86725 2.0832,0.0111 3.70221,2.52824 2.76897,4.30508 -0.36086,0.68704 -2.69508,3.40856 -2.91179,3.39491 -0.0891,-0.006 -0.65456,-0.45552 -1.25657,-0.99979 z M 21.850171,208.50226 c -2.361722,-3.23545 -2.498379,-3.4677 -1.832839,-3.11493 0.383773,0.20343 1.14533,-0.24912 4.393175,-2.6106 3.223778,-2.34398 3.90183,-2.94205 3.777955,-3.33235 -0.263156,-0.82913 0.256392,-0.51544 1.078838,0.65137 0.928396,1.31712 0.960627,1.44761 0.306283,1.23993 -0.360734,-0.1145 -1.351062,0.47407 -3.794724,2.25527 -3.338182,2.43322 -3.928688,2.95474 -3.928688,3.46978 0,0.52296 1.564456,2.65109 2.142525,2.91448 0.415677,0.18939 0.781708,0.17395 1.337922,-0.0564 0.421132,-0.17444 0.817905,-0.26495 0.881719,-0.20114 0.102019,0.10202 -1.948003,1.70113 -2.163336,1.68751 -0.04606,-0.003 -1.035529,-1.30921 -2.19883,-2.90288 z m 161.493469,0.93915 c 0,-0.32519 -1.18394,-1.35022 -3.73636,-3.23485 -2.055,-1.51735 -3.8372,-2.75882 -3.96044,-2.75882 -0.43556,0 -1.81118,1.99318 -1.65555,2.39877 0.12099,0.31527 0.0353,0.36688 -0.4107,0.24737 -0.30996,-0.0831 -0.64756,-0.15253 -0.7502,-0.1544 -0.32324,-0.006 -0.20214,-0.5007 0.12442,-0.50838 0.33156,-0.008 4.35783,-5.35171 4.81063,-6.38499 l 0.26942,-0.61478 0.41488,0.63319 c 0.50404,0.76926 0.51918,0.92394 0.0737,0.75299 -0.30581,-0.11735 -1.89832,1.69429 -1.89832,2.15953 0,0.0952 1.688,1.42773 3.75111,2.96115 2.62598,1.95179 3.8948,2.75047 4.23018,2.66277 0.2635,-0.0689 0.47908,-0.0701 0.47908,-0.003 0,0.15504 -1.54865,2.3191 -1.65961,2.3191 -0.0452,0 -0.0822,-0.21421 -0.0822,-0.47602 z M 18.914107,195.55901 C 12.041095,184.40694 7.8656392,171.11987 6.8907531,157.29848 c -0.3246106,-4.60215 -0.1424159,-12.7863 0.3796688,-17.05466 1.1699748,-9.56525 4.1584561,-19.71755 8.1671631,-27.74502 1.32626,-2.65585 4.440434,-7.90271 4.597362,-7.74578 0.06872,0.0687 -0.437424,1.55969 -1.124761,3.31327 -3.626031,9.25099 -6.349208,19.77231 -7.362265,28.44502 -0.750258,6.4229 -0.89598,8.73277 -0.894794,14.18355 0.0033,15.20425 2.940196,29.88823 8.876497,44.38114 0.608569,1.48576 1.057095,2.75077 0.996723,2.81114 -0.06037,0.0604 -0.785879,-0.98728 -1.61224,-2.32813 z m 169.406223,2.13055 c 0,-0.21404 0.49439,-1.56919 1.09863,-3.01145 1.56231,-3.72897 3.89424,-10.83759 5.08197,-15.49172 2.54794,-9.98415 3.56557,-17.98801 3.57501,-28.11828 0.007,-7.97748 -0.48282,-13.5773 -1.82991,-20.90208 -1.26492,-6.87794 -4.05802,-16.45251 -6.67221,-22.87193 -0.55266,-1.35713 -0.95525,-2.51711 -0.89463,-2.57772 0.15351,-0.15352 1.59533,2.14154 3.26798,5.20188 11.96919,21.89938 13.46433,50.17145 3.90005,73.74715 -1.99388,4.91487 -7.52689,15.22401 -7.52689,14.02415 z m -28.64341,-6.53739 c -4.05567,-1.5569 -6.92683,-5.94993 -8.94287,-13.68305 -1.61323,-6.18806 -2.21686,-11.89549 -2.40546,-22.74405 -0.12617,-7.25765 -0.17867,-8.02277 -0.54062,-7.87868 -2.99801,1.19348 -6.68868,1.76582 -12.8876,1.9986 l -4.72966,0.1776 -0.15824,5.75061 c -0.30911,11.23399 -1.26063,16.57949 -3.9027,21.92485 -3.0812,6.23378 -7.796,10.10993 -13.80626,11.35043 -7.45217,1.53812 -13.064332,-1.13365 -15.075394,-7.1769 -0.442766,-1.33051 -0.517583,-2.03836 -0.439215,-4.15544 0.0871,-2.35282 0.167371,-2.69929 1.029716,-4.44412 1.437987,-2.90957 4.166993,-4.90025 6.841063,-4.99024 1.01473,-0.0341 1.17207,0.0266 1.17207,0.45224 0,0.33088 -0.24414,0.56459 -0.7465,0.71462 -3.42006,1.02139 -4.64605,1.90017 -5.796191,4.15468 -2.037831,3.99454 -1.298584,9.07396 1.714921,11.78336 4.92818,4.43086 14.17462,2.30135 18.01737,-4.1495 3.05611,-5.13031 4.23138,-11.36764 4.5233,-24.00575 0.17754,-7.68669 0.36503,-7.10926 -2.03971,-6.28191 -1.68536,0.57985 -3.13486,1.4105 -4.32274,2.4772 -0.9339,0.83863 -1.63546,0.96919 -1.87358,0.34867 -0.38068,-0.99205 3.58996,-3.62462 6.68141,-4.42984 0.80293,-0.20914 1.49037,-0.41075 1.52764,-0.44802 0.0373,-0.0373 0.19109,-3.53822 0.34181,-7.77988 0.15073,-4.24166 0.44434,-9.22378 0.65247,-11.07137 0.79981,-7.09987 2.32973,-12.59504 4.34991,-15.62398 l 0.54579,-0.81832 -0.83924,0.49269 c -1.28037,0.75166 -4.50596,1.87791 -8.98263,3.13636 -4.94962,1.39141 -5.89238,1.73582 -7.73103,2.82426 -1.81552,1.07477 -3.01998,2.44902 -3.9568,4.51463 -1.05792,2.33262 -1.07906,2.36393 -1.59565,2.36393 -1.28343,0 0.32856,-4.15455 2.44696,-6.30654 2.13552,-2.16935 3.97701,-3.02154 10.31893,-4.77526 4.24684,-1.17436 6.26599,-1.89607 9.43179,-3.37119 4.8578,-2.26351 6.8434,-2.15331 5.09397,0.28273 -2.25752,3.14355 -3.38289,10.09883 -3.66164,22.63063 -0.0883,3.9689 -0.0772,8.5319 0.0247,10.13999 l 0.1852,2.92381 h 2.6765 c 5.91313,0 11.66483,-0.79073 14.33126,-1.97022 l 1.06332,-0.47036 0.14565,-1.70351 c 0.99795,-11.67258 2.18126,-17.66541 4.55344,-23.06072 2.22557,-5.06187 4.57375,-7.66726 7.55487,-8.38242 2.23852,-0.53701 3.41507,0.46149 3.94344,3.34668 1.26269,6.89496 -2.93449,19.83702 -8.48249,26.15585 l -0.76026,0.86588 -0.24087,6.27971 c -0.38358,9.99986 0.27089,24.3486 1.41005,30.91432 0.70251,4.049 1.9368,7.4948 3.23499,9.03115 1.15591,1.36798 2.43003,1.87153 4.24396,1.67727 1.60914,-0.17232 2.08956,0.0889 1.60513,0.87271 -0.30317,0.49054 -4.55814,0.59114 -5.74426,0.13581 z m -2.76654,-53.58332 c 2.43652,-3.80383 4.28016,-8.16659 5.41467,-12.81322 1.12891,-4.62364 1.06698,-10.04837 -0.12835,-11.2437 -0.48658,-0.48657 -0.49306,-0.48589 -1.14253,0.11968 -2.0121,1.87611 -3.70833,7.68707 -4.82481,16.52888 -0.51125,4.0487 -0.90018,9.33683 -0.68672,9.33683 0.0729,0 0.68834,-0.86781 1.36774,-1.92847 z M 55.691638,189.25629 c -3.843378,-0.45463 -7.297393,-1.82186 -10.256739,-4.06002 -0.99645,-0.75361 -1.979883,-1.57431 -2.18541,-1.82378 -2.551099,-3.09655 -3.64962,-5.01175 -4.57459,-7.97553 -2.664037,-8.53606 -0.320638,-17.80675 5.994065,-23.71304 2.589741,-2.42224 6.799903,-4.68718 9.521797,-5.12243 0.551763,-0.0882 1.002795,-0.23009 1.002287,-0.31524 -4.97e-4,-0.0851 -0.742912,-0.53851 -1.649794,-1.00747 -1.966346,-1.01682 -4.58732,-3.53805 -5.780786,-5.5608 -4.384152,-7.43047 -3.179857,-17.93226 2.721299,-23.73047 1.90295,-1.86975 2.480189,-2.2904 4.710202,-3.43247 5.992383,-3.06891 14.276747,-2.84732 19.406558,0.51909 4.415978,2.89796 6.701574,8.6391 5.623332,14.12513 -0.809388,4.11811 -2.844574,6.98184 -6.161346,8.6697 -4.390192,2.23411 -9.212949,1.71645 -12.534686,-1.34542 -1.497355,-1.38021 -2.323241,-2.89689 -2.769757,-5.08646 -0.455879,-2.23548 -0.308258,-3.15519 0.488253,-3.04193 0.487213,0.0693 0.572891,0.28024 0.739264,1.82021 0.568594,5.26297 4.859033,8.46017 10.136575,7.5537 3.348812,-0.57519 6.125158,-2.57578 7.56293,-5.44972 2.869025,-5.73484 0.886975,-13.21291 -4.309041,-16.25757 -6.458788,-3.78459 -14.754944,-2.13298 -19.235525,3.82942 -1.015644,1.35154 -2.367877,4.25224 -2.980243,6.39298 -0.457524,1.59943 -0.556172,2.5747 -0.561244,5.54861 -0.0071,4.15885 0.30437,5.65044 1.862199,8.91808 2.034211,4.26687 6.302535,7.23198 10.446595,7.25701 1.33153,0.008 1.822758,0.26612 1.701822,0.89408 -0.07515,0.39022 -0.47551,0.50488 -2.575034,0.73749 -5.039549,0.55834 -7.873815,1.85888 -11.111624,5.09874 -1.851648,1.85282 -2.333857,2.52208 -3.417088,4.74261 -4.51213,9.24946 -3.027144,20.2777 3.533211,26.2394 2.763368,2.5112 5.759037,3.68579 9.38037,3.678 4.371222,-0.009 8.346823,-1.56415 12.566132,-4.91426 2.960815,-2.35087 6.630305,-6.89031 9.271622,-11.4697 1.074215,-1.86242 4.241886,-8.17578 4.775217,-9.51728 0.343173,-0.8632 1.156281,-1.11051 1.417037,-0.43099 0.18153,0.47306 -0.08339,1.13891 -2.17626,5.46988 -6.840259,14.15517 -14.934058,21.52359 -24.982828,22.74383 -2.459961,0.29871 -3.195498,0.3009 -5.598772,0.0166 z M 24.708802,101.68384 c 0.129136,-0.40687 -0.598516,-1.05199 -4.362075,-3.867279 -3.666718,-2.742856 -4.583898,-3.323483 -4.872087,-3.084309 -0.994539,0.825393 -0.361433,-0.266268 1.795389,-3.095785 l 2.39667,-3.144171 0.718484,0.511609 c 0.910754,0.648512 0.909124,0.826888 -0.0059,0.643886 -0.667546,-0.13351 -0.832621,-9.96e-4 -2.104385,1.688644 l -1.380017,1.833521 1.860672,1.400454 c 1.02337,0.770249 2.002619,1.454925 2.176109,1.521498 0.31848,0.122212 2.660331,-2.825342 2.660331,-3.348409 0,-0.361684 0.322852,-0.351148 0.696736,0.02274 0.392279,0.39228 0.379388,0.696736 -0.0295,0.696736 -0.292628,0 -2.806187,3.209818 -2.612264,3.335863 0.04332,0.02816 0.876296,0.632816 1.851048,1.34368 0.974752,0.710865 1.9529,1.292481 2.173662,1.292481 0.405918,0 2.452082,-2.374345 2.964448,-3.439908 0.208327,-0.433258 0.203007,-0.698521 -0.02121,-1.057546 -0.378046,-0.605349 -0.02339,-0.617587 0.709077,-0.02446 0.673017,0.544977 0.78904,0.313537 -2.1239,4.236696 -2.15117,2.897209 -2.823666,3.581249 -2.491306,2.534069 z M 180.83995,99.248368 c -0.58876,-0.786938 -1.73432,-2.248932 -2.54569,-3.248872 -0.81136,-0.999941 -1.40957,-1.883709 -1.32935,-1.963925 0.0802,-0.08022 0.29296,-0.02376 0.47276,0.125469 0.25131,0.208566 1.34838,-0.53667 4.7434,-3.222182 3.58942,-2.839282 4.38826,-3.582428 4.26577,-3.968375 -0.0829,-0.261179 -0.0572,-0.474873 0.057,-0.474873 0.24017,0 4.8064,5.857084 4.79466,6.150094 -0.012,0.299067 -1.24978,1.135615 -1.42341,0.961991 -0.0842,-0.08416 -0.0205,-0.285522 0.14144,-0.447474 0.49327,-0.493276 0.34749,-0.865251 -1.04582,-2.668571 l -1.34027,-1.734666 -2.01048,1.544283 c -1.10576,0.849354 -1.96587,1.673734 -1.91135,1.831955 0.20837,0.60473 2.26251,3.069738 2.55881,3.070641 0.48015,0.0015 0.36801,0.450624 -0.18662,0.747451 -0.36689,0.19635 -0.49767,0.189236 -0.49767,-0.02707 0,-0.358979 -2.28489,-3.429403 -2.56383,-3.445251 -0.31041,-0.01764 -3.59398,2.700266 -3.74839,3.102646 -0.13379,0.348656 0.99174,2.031259 2.29158,3.425784 0.52192,0.559947 0.78934,0.664467 1.39978,0.547114 l 0.7546,-0.145068 -0.69817,0.634841 c -0.38399,0.34917 -0.79045,0.63486 -0.90323,0.63486 -0.11279,0 -0.68678,-0.64386 -1.27554,-1.430799 z M 30.680619,94.054731 c 0.115988,-0.434686 -0.57487,-1.194499 -3.909321,-4.299516 -3.391721,-3.158344 -4.144622,-3.748515 -4.630934,-3.630007 -0.690188,0.168189 -0.599574,-0.02279 0.661639,-1.394505 1.024998,-1.1148 1.276037,-1.200352 1.210106,-0.412393 -0.03583,0.428166 0.819726,1.364781 3.636766,3.981349 2.371352,2.202596 3.875039,3.421471 4.220961,3.421471 0.757372,0 3.168554,-2.591644 3.168554,-3.4057 0,-0.342782 -0.231575,-0.94846 -0.514612,-1.345948 -0.756106,-1.06185 -0.241111,-0.880064 0.952627,0.336265 l 1.039302,1.058972 -2.987988,3.109003 c -1.643391,1.709952 -2.924587,2.871406 -2.8471,2.581009 z M 172.5201,89.449987 c -1.02686,-0.97541 -1.86701,-1.903418 -1.86701,-2.062236 0,-0.395836 2.43738,-2.767887 2.63799,-2.567281 0.0886,0.08862 -0.13276,0.510361 -0.49194,0.937219 -0.75825,0.901139 -0.80937,1.453033 -0.24477,2.642827 0.51691,1.089315 1.77681,2.058519 2.91631,2.243436 0.75203,0.122035 0.9946,0.03113 1.64056,-0.614835 0.94308,-0.943087 0.94441,-1.367755 0.0115,-3.697481 -0.41057,-1.025367 -0.74608,-2.275752 -0.74557,-2.778631 0.002,-1.796865 1.54951,-3.278253 3.42495,-3.278253 0.93296,0 2.53384,1.062261 3.25203,2.157866 0.50422,0.769197 0.53939,0.971243 0.27865,1.600732 -0.38834,0.937515 -0.7357,0.919368 -0.7357,-0.03844 0,-1.683031 -1.21693,-2.973655 -2.80386,-2.973655 -1.3948,0 -2.2846,0.943622 -2.05315,2.177352 0.0934,0.498075 0.46037,1.471654 0.8154,2.163505 0.44263,0.862547 0.6513,1.673981 0.66393,2.581686 0.0173,1.244436 -0.0444,1.382377 -1.0295,2.301718 -0.95802,0.894064 -1.16606,0.977946 -2.42538,0.977946 -1.36726,0 -1.39132,-0.01316 -3.24448,-1.773475 z M 37.603588,86.654413 c 0.03554,-0.446988 -0.859113,-1.644033 -3.540071,-4.736601 -2.911292,-3.358262 -3.679133,-4.109401 -4.072998,-3.984392 -0.703963,0.223429 -0.462272,-0.144791 0.919374,-1.400676 1.152784,-1.047853 1.212141,-1.072515 1.056013,-0.438742 -0.147094,0.597081 0.193369,1.084836 3.071436,4.400195 1.780278,2.050773 3.455881,3.798189 3.723564,3.883149 0.577137,0.183174 1.364351,-0.20772 2.566418,-1.274366 1.396988,-1.23961 1.548147,-1.692897 0.948302,-2.843723 -0.661663,-1.269431 -0.388077,-1.20816 0.843631,0.18893 l 0.989089,1.121894 -1.039707,0.907551 c -5.297028,4.623723 -5.513761,4.789367 -5.465051,4.176781 z M 168.22696,85.247651 c -0.92638,-0.84274 -0.94855,-0.922267 -0.41996,-1.506351 0.36217,-0.400198 0.30203,-0.441499 -0.87953,-0.604005 -2.42521,-0.333553 -4.48591,-2.338197 -4.48591,-4.363877 0,-1.075186 0.58686,-1.991981 3.66694,-5.72847 1.97055,-2.390507 2.27516,-2.880545 2.13578,-3.435882 -0.15315,-0.6102 -0.0881,-0.585404 1.12237,0.428088 0.70671,0.591692 1.34787,1.177637 1.42479,1.302101 0.18954,0.306693 -0.22592,0.288026 -0.53812,-0.02418 -0.29971,-0.299699 -0.72437,0.130644 -3.68487,3.734156 -2.1812,2.654936 -2.76916,3.855621 -2.44124,4.985249 0.46051,1.586374 1.74721,2.475829 3.58508,2.478248 l 1.16497,0.0015 2.89301,-3.533694 c 2.39053,-2.919931 2.86708,-3.637012 2.74372,-4.128547 -0.13478,-0.536994 -0.0152,-0.490094 1.22975,0.482194 1.35569,1.058815 1.8456,1.724064 0.89499,1.215309 -0.42253,-0.22613 -0.70157,0.002 -2.19525,1.795293 -4.47818,5.376222 -5.52495,6.764598 -5.28279,7.006766 0.29257,0.292567 0.32697,0.649438 0.0616,0.639066 -0.10264,-0.004 -0.55054,-0.33836 -0.99533,-0.742997 z M 45.687244,79.962978 c 0.345624,-0.416452 0.242186,-0.584219 -3.372772,-5.470459 -2.64816,-3.579443 -3.124088,-4.10561 -3.608098,-3.988967 -0.644073,0.155217 -0.519884,0.01032 0.971258,-1.133233 1.185277,-0.908981 1.746939,-1.048751 1.292913,-0.321742 -0.255319,0.408833 0.116688,1.023667 2.898245,4.790061 1.755141,2.376561 3.298095,4.391278 3.428785,4.477148 0.130693,0.08587 0.47717,0.109154 0.769953,0.05174 0.503109,-0.09866 0.506985,-0.08674 0.07062,0.217122 -0.253938,0.176835 -0.857207,0.629447 -1.340595,1.005809 -0.913765,0.711447 -1.575995,0.933631 -1.110314,0.37252 z m 4.146936,-2.93901 c -0.07916,-0.128092 -0.02535,-0.232896 0.119582,-0.232896 0.617886,0 0.07835,-1.123908 -2.564593,-5.342354 -2.118182,-3.380863 -2.949418,-4.506829 -3.408139,-4.616562 l -0.606691,-0.145129 0.622086,-0.392416 c 2.983591,-1.882071 3.764104,-2.366457 4.835749,-3.001066 l 1.227651,-0.726994 0.446446,0.58036 c 0.706118,0.917916 0.593209,1.19797 -0.266516,0.661062 -0.393947,-0.246024 -0.747603,-0.126704 -2.22378,0.750276 -0.965435,0.573554 -1.8208,1.14875 -1.900813,1.278213 -0.108313,0.175254 1.985909,3.919065 2.482488,4.437914 0.157701,0.164772 3.610307,-2.20525 3.610307,-2.478274 0,-0.166852 0.207894,-0.10089 0.491801,0.156041 0.541489,0.49004 0.456494,0.87336 -0.195444,0.881455 -0.231426,0.0029 -1.125973,0.456894 -1.98788,1.008934 l -1.567106,1.003709 0.554801,0.919532 c 1.110811,1.84107 2.01192,3.071193 2.342755,3.198148 0.18609,0.07141 1.043305,-0.294411 1.904923,-0.812932 2.324185,-1.398692 2.499347,-1.582623 2.338252,-2.455303 l -0.138857,-0.752221 0.615484,0.746503 c 0.338517,0.410577 0.616042,0.817341 0.616721,0.903918 0.0025,0.310978 -7.208536,4.657726 -7.349227,4.430082 z m 104.89351,-1.958595 c -2.46759,-0.753328 -4.22767,-2.481731 -4.70662,-4.621928 -0.48107,-2.149651 0.11652,-3.938592 1.88615,-5.646349 3.37173,-3.253829 8.70361,-2.434573 10.83557,1.664909 2.25358,4.333326 -3.11745,10.098564 -8.0151,8.603368 z m 4.89622,-1.415026 c 1.27609,-1.031418 1.82839,-2.044101 1.99495,-3.657944 0.18372,-1.780073 -0.40956,-3.534915 -1.68494,-4.983822 -1.15009,-1.30657 -2.28209,-1.759755 -3.98656,-1.595976 -1.52285,0.146326 -2.92129,1.084928 -3.71791,2.495385 -0.47805,0.846406 -0.59703,1.421881 -0.60378,2.920384 -0.007,1.589418 0.0952,2.053177 0.69024,3.126341 0.4199,0.75734 1.11486,1.533711 1.74184,1.945897 0.93829,0.616848 1.22277,0.677407 2.82898,0.602259 1.55907,-0.07294 1.90658,-0.181179 2.73718,-0.852524 z m -14.35192,-3.765606 c -0.47901,-0.201194 -1.15086,-0.476728 -1.49301,-0.612296 -0.59306,-0.234989 -0.59864,-0.255537 -0.11962,-0.440439 0.32754,-0.12643 0.7968,-0.918806 1.34796,-2.276091 0.46503,-1.145178 0.95472,-2.224817 1.08821,-2.399198 0.13349,-0.174381 0.19877,-0.360917 0.14505,-0.414525 -0.28129,-0.280713 -5.96155,-2.552157 -6.04026,-2.415401 -0.051,0.08853 -0.51565,1.212148 -1.03265,2.496921 -0.76941,1.912032 -0.88747,2.420053 -0.65058,2.799386 0.3516,0.562995 0.33763,0.563972 -0.86637,0.06061 -0.52993,-0.221554 -1.24345,-0.517206 -1.5856,-0.657003 l -0.62209,-0.254178 0.60851,-0.159721 c 0.6374,-0.167306 1.16121,-1.222127 3.75198,-7.55552 0.95277,-2.329139 1.05578,-2.751451 0.77916,-3.194386 -0.29057,-0.465281 -0.2714,-0.495382 0.21682,-0.340428 0.29457,0.09349 1.05746,0.403667 1.69532,0.689278 1.05164,0.470884 1.10428,0.532904 0.56469,0.665313 -0.46341,0.113714 -0.81004,0.635126 -1.56674,2.356728 -0.53442,1.21589 -0.88251,2.298764 -0.77353,2.406388 0.41015,0.405037 5.64692,2.464538 5.8031,2.282221 0.0897,-0.104757 0.53997,-1.120563 1.00052,-2.257346 0.70005,-1.727928 0.78784,-2.146198 0.53532,-2.550552 -0.16614,-0.26602 -0.22863,-0.483673 -0.13888,-0.483673 0.47181,0 3.07588,1.095751 3.07588,1.294282 0,0.127744 -0.20524,0.167119 -0.4561,0.0875 -0.53677,-0.170366 -0.42307,-0.390054 -2.95453,5.708643 -1.54296,3.717259 -1.8097,4.555961 -1.57067,4.938709 0.38782,0.620989 0.27953,0.653798 -0.74189,0.224777 z M 63.90317,69.10383 c 0,-0.151501 0.111975,-0.275456 0.248834,-0.275456 0.44356,0 0.278866,-0.519001 -1.772061,-5.584314 -1.931288,-4.769838 -2.310013,-5.485303 -2.757283,-5.208875 -0.109179,0.06748 -0.198508,0.01585 -0.198508,-0.114721 0,-0.403782 4.40757,-2.031475 5.500956,-2.031475 0.833438,0 1.177747,0.159245 1.8949,0.876396 0.831067,0.831067 0.870547,0.946899 0.763354,2.239509 l -0.11304,1.363113 h 0.729652 c 1.686668,0 3.224153,2.671951 2.686472,4.668744 -0.355644,1.320767 -1.21573,1.981295 -4.121681,3.165373 -1.23173,0.501889 -2.379479,0.972068 -2.550552,1.044844 -0.171074,0.07278 -0.311043,0.0084 -0.311043,-0.143138 z m 4.343239,-2.12093 c 1.141117,-0.47679 1.726875,-1.412223 1.531543,-2.44582 -0.223921,-1.184872 -1.014048,-2.345736 -1.912994,-2.8106 -0.746498,-0.386029 -0.868509,-0.378493 -2.312723,0.142848 -0.838557,0.302708 -1.557118,0.578449 -1.596805,0.612759 -0.146262,0.126446 1.494666,3.996903 1.872988,4.417821 0.473843,0.527194 1.287987,0.555138 2.417991,0.08299 z m -2.290356,-6.160831 c 1.011275,-1.182513 0.133564,-3.647295 -1.439387,-4.04208 -0.791199,-0.198579 -2.602914,0.269525 -2.607853,0.673806 -0.002,0.165798 0.400907,1.270919 0.895405,2.455824 l 0.899088,2.154372 0.908644,-0.366363 c 0.499753,-0.2015 1.1046,-0.595502 1.344103,-0.875559 z m 8.099557,4.224023 c 0.453184,-0.453185 0.395689,-0.789043 -0.955375,-5.580698 -1.512544,-5.364358 -1.682209,-5.815914 -2.185243,-5.815914 -0.915083,0 0.286541,-0.464517 3.515564,-1.359028 2.006545,-0.555858 3.52591,-0.859291 3.652699,-0.729484 0.290825,0.297745 0.600822,1.590844 0.381375,1.590844 -0.09554,0 -0.367279,-0.239041 -0.603856,-0.531202 l -0.43014,-0.531202 -1.973671,0.571023 c -1.08552,0.314062 -2.05631,0.64134 -2.157314,0.727284 -0.140034,0.119158 0.933275,4.576306 1.188883,4.937091 0.104072,0.146894 3.664142,-0.936607 4.003898,-1.218578 0.40994,-0.340221 0.464942,-0.301585 0.711853,0.500035 0.15361,0.498712 0.113389,0.570405 -0.24324,0.433553 -0.23501,-0.09018 -1.296771,0.07432 -2.359475,0.365559 l -1.932186,0.529523 0.531219,1.898518 c 0.630011,2.251576 1.023707,3.018271 1.549872,3.018271 0.56785,0 3.896298,-1.022853 4.260056,-1.309142 0.171074,-0.13464 0.311043,-0.45504 0.311043,-0.712001 0,-0.760036 0.422364,-0.532684 0.592708,0.319047 0.08649,0.432436 0.109097,0.834402 0.05024,0.893258 -0.115146,0.115145 -7.748295,2.301844 -8.035091,2.301844 -0.09483,0 -0.03805,-0.13437 0.126181,-0.298601 z m 49.65005,-2.286305 c -1.38408,-0.297714 -1.99311,-0.64994 -1.12381,-0.64994 0.35052,0 0.57829,-0.192652 0.66194,-0.559877 0.0701,-0.307933 0.35609,-1.611827 0.63542,-2.897544 l 0.50789,-2.337667 -0.89581,-2.688385 c -0.4927,-1.478611 -1.12056,-2.974102 -1.39524,-3.323313 -0.43141,-0.548441 -0.4442,-0.63493 -0.0939,-0.63493 0.74767,0 2.61659,0.554296 2.61659,0.776044 0,0.120611 -0.10487,0.219294 -0.23305,0.219294 -0.20323,0 0.94567,3.820259 1.34152,4.460761 0.2398,0.388005 3.68767,-3.177395 3.51295,-3.632702 -0.1175,-0.306206 -0.0283,-0.357812 0.41378,-0.23936 0.30996,0.08305 0.75953,0.152537 0.99903,0.154406 0.23951,0.0019 0.43546,0.115373 0.43546,0.252232 0,0.136859 -0.14553,0.248834 -0.32341,0.248834 -0.17787,0 -1.29955,0.935274 -2.49261,2.078386 l -2.1692,2.078387 -0.6631,3.055154 c -0.61642,2.840109 -0.63363,3.076697 -0.24456,3.361193 0.23019,0.16832 0.41853,0.377674 0.41853,0.465231 0,0.193979 -0.25794,0.168812 -1.90842,-0.186204 z m -40.642248,-0.14753 c 0,-0.139467 0.103291,-0.253576 0.229537,-0.253576 0.331781,0 0.60781,-1.000501 1.887896,-6.842943 1.333822,-6.087693 1.336126,-6.096441 1.606835,-6.096441 0.113879,0 1.681503,2.469848 3.483611,5.48855 2.113644,3.540559 3.46934,5.562982 3.819736,5.698266 0.662853,0.25592 0.346338,0.397408 -1.419741,0.634652 -1.069132,0.143621 -1.197187,0.11329 -1.057589,-0.250503 0.100248,-0.261241 -0.323001,-1.232513 -1.147506,-2.633288 l -1.306338,-2.219379 -1.244172,0.155451 c -2.21684,0.276978 -2.20977,0.269288 -2.839214,3.088452 -0.461245,2.065826 -0.506425,2.58298 -0.240051,2.74761 0.264593,0.163527 0.257208,0.225463 -0.03814,0.319821 -1.02293,0.32681 -1.734865,0.393835 -1.734864,0.163328 z m 5.403756,-6.957269 c 0.172238,-0.0084 -0.149433,-0.768516 -0.746503,-1.763905 l -1.049155,-1.749072 -0.268975,1.189195 c -0.147937,0.654057 -0.337345,1.534369 -0.420909,1.956248 l -0.151933,0.767055 1.167411,-0.192344 c 0.642077,-0.105789 1.303606,-0.199018 1.470064,-0.207177 z m 24.662332,5.467849 c -1.28713,-0.123595 -2.33147,-0.505996 -1.38188,-0.505996 0.22002,0 0.45687,-0.09197 0.52634,-0.204367 0.11338,-0.18345 1.14724,-9.925272 1.14724,-10.810162 0,-0.499082 -3.22209,-0.855121 -3.51082,-0.387943 -0.24144,0.390666 -0.35533,0.268897 -0.56468,-0.603783 -0.15087,-0.628871 0.14385,-0.958974 0.43524,-0.487496 0.0669,0.10824 0.5494,0.225044 1.07223,0.259566 0.52283,0.03452 2.54584,0.222544 4.49558,0.417827 1.94974,0.195283 3.72467,0.286107 3.94429,0.201831 0.3604,-0.138298 0.35872,-0.07473 -0.0172,0.652284 -0.35405,0.684649 -0.4605,0.749428 -0.70944,0.431725 -0.17107,-0.218307 -0.93335,-0.44419 -1.83259,-0.543038 l -1.53969,-0.16925 -0.13326,0.831343 c -0.23131,1.44308 -0.89312,8.571197 -0.89312,9.619528 0,0.757693 0.10692,1.025466 0.43546,1.090571 0.93362,0.185007 -0.13724,0.335689 -1.47366,0.20736 z M 98.396408,60.608276 c -0.781023,-0.233849 -1.781412,-1.071664 -2.218171,-1.857692 -0.155688,-0.280194 -0.34477,-2.483866 -0.432691,-5.042867 -0.139927,-4.072624 -0.205293,-4.581122 -0.628687,-4.890715 -0.423235,-0.309478 -0.2978,-0.354485 1.202567,-0.431489 1.59667,-0.08195 2.109719,0.06685 1.300793,0.377266 -0.426502,0.163665 -0.472175,2.145258 -0.154478,6.702372 0.177978,2.552972 0.225192,2.724491 0.949327,3.448626 1.021632,1.021632 2.568782,1.218339 3.968022,0.5045 1.69529,-0.86487 1.67467,-0.783558 1.48022,-5.837829 -0.16276,-4.230428 -0.21014,-4.561949 -0.70673,-4.945315 -0.51351,-0.396428 -0.47575,-0.41442 1.07145,-0.510412 1.75712,-0.109016 2.25906,-0.0028 1.63568,0.346038 -0.46422,0.259788 -0.52172,2.173075 -0.24113,8.023664 0.15167,3.16238 0.20345,3.436527 0.6843,3.622518 0.44902,0.173685 0.4642,0.223925 0.11092,0.367141 -0.22511,0.09126 -0.84098,0.130466 -1.36859,0.08713 -0.8847,-0.07266 -0.95308,-0.132001 -0.87928,-0.763084 0.0978,-0.836756 0.0469,-0.839822 -1.09379,-0.06576 -1.5185,1.030484 -3.132587,1.329145 -4.679732,0.86591 z"
         style="fill:#ffffff;stroke-width:0.99624276" />
      <path
         id="path828"
         d="m 104.39132,249.23228 c 0.14479,-0.55368 -0.38283,-9.302 -0.59424,-9.85292 -0.10905,-0.28418 0.32323,-0.34832 2.34774,-0.34832 2.09521,0 2.57877,0.0766 3.10698,0.49207 1.11718,0.87878 1.02996,2.84537 -0.17647,3.97875 l -0.61411,0.57693 0.53576,0.77318 c 1.18268,1.70677 2.96854,3.58986 3.68654,3.88727 0.58255,0.2413 0.9065,0.24814 1.38683,0.0293 0.3447,-0.15706 0.55956,-0.17688 0.47746,-0.044 -0.23822,0.38546 -1.86506,0.74677 -2.65291,0.5892 -0.7503,-0.15006 -2.73712,-2.12647 -3.89201,-3.87162 -0.54484,-0.82332 -0.74017,-0.93666 -1.61421,-0.93666 h -0.99437 l 0.17917,2.30172 c 0.0985,1.26594 0.29466,2.44168 0.43581,2.61276 0.19789,0.23983 0.0271,0.31104 -0.74586,0.31104 -0.88065,0 -0.98666,-0.0606 -0.87211,-0.49864 z m 3.56158,-5.3521 c 1.34915,-0.69767 1.4086,-2.90402 0.10887,-4.04042 -0.45815,-0.40058 -0.95501,-0.55988 -1.74622,-0.55988 h -1.10588 v 1.33386 c 0,0.73362 0.0712,1.85337 0.15823,2.48834 0.15311,1.11706 0.18578,1.15448 1.0077,1.15448 0.4672,0 1.17698,-0.16937 1.5773,-0.37638 z m -13.28301,5.43022 c -0.06089,-0.0609 -0.01488,-0.46708 0.102246,-0.90264 0.117129,-0.43556 0.245988,-2.77851 0.286352,-5.20655 l 0.07339,-4.41462 1.493006,-7.5e-4 c 0.821153,-5e-4 1.90782,0.11441 2.414815,0.25522 1.836801,0.51014 2.528861,2.5123 1.344361,3.88935 l -0.595412,0.69221 0.726042,0.44153 c 1.69948,1.03352 1.53118,4.19893 -0.27464,5.16537 -0.48545,0.25981 -5.321025,0.33007 -5.570158,0.0809 z m 5.314255,-0.57482 c 0.378685,-0.37868 0.497665,-0.82944 0.497665,-1.8854 0,-1.20202 -0.0973,-1.48506 -0.727359,-2.11509 -0.630028,-0.63003 -0.913062,-0.72736 -2.115091,-0.72736 h -1.387729 l -0.0027,1.18196 c -0.0015,0.65008 -0.0701,1.58927 -0.152428,2.08708 -0.118674,0.71757 -0.04076,1.01405 0.375991,1.4308 0.724944,0.72495 2.798217,0.74149 3.511689,0.028 z m -1.013106,-5.21601 c 0.6639,-0.35531 1.095901,-1.60524 0.90553,-2.62 -0.194536,-1.03698 -0.947499,-1.60831 -2.371286,-1.79928 l -1.004818,-0.13477 -0.0022,1.09031 c -0.0012,0.59967 -0.07277,1.67818 -0.159077,2.39669 l -0.156915,1.30638 h 1.170773 c 0.643926,0 1.372005,-0.1077 1.617956,-0.23933 z m 17.124521,4.45226 c -2.75497,-1.45438 -3.27454,-5.95262 -0.98134,-8.49611 1.19893,-1.32979 2.54005,-1.92535 4.35112,-1.93222 1.76219,-0.007 3.10206,0.61741 4.08144,1.90107 0.64133,0.84058 0.69871,1.09259 0.69871,3.06893 0,1.95532 -0.0687,2.26577 -0.74771,3.3789 -1.42497,2.336 -5.00901,3.34282 -7.40222,2.07943 z m 5.70785,-0.75785 c 4.15112,-2.56553 1.73332,-8.92944 -3.39251,-8.92944 -1.67234,0 -2.77525,0.64929 -3.65612,2.15239 -0.5517,0.94139 -0.63001,1.3053 -0.50607,2.35173 0.46044,3.88775 4.5492,6.28282 7.5547,4.42532 z m -41.103924,-0.0951 c -0.821153,-0.17808 -2.186816,-0.46569 -3.034806,-0.63914 -1.303842,-0.26669 -1.508187,-0.37817 -1.324015,-0.72229 0.355707,-0.66465 2.264776,-9.29866 2.132341,-9.64379 -0.150634,-0.39254 0.346699,-0.3751 1.977646,0.0694 0.969311,0.26415 1.039625,0.31166 0.318274,0.21503 -0.80805,-0.10824 -0.943995,-0.0515 -1.068067,0.44577 -0.07819,0.31338 -0.52245,2.30541 -0.987235,4.42672 -0.99043,4.52038 -0.94836,4.71415 1.159386,5.34009 3.136353,0.93139 5.2188,0.21657 6.495474,-2.22966 0.993028,-1.90274 0.500971,-4.52218 -1.136503,-6.05012 -0.339373,-0.31666 -1.274067,-0.84589 -2.0771,-1.17605 -0.803031,-0.33016 -1.292094,-0.60174 -1.086806,-0.60351 0.702185,-0.006 2.818698,0.73839 3.898542,1.37122 3.39182,1.98774 2.642603,7.28996 -1.285782,9.09948 -1.147965,0.52879 -1.904787,0.5472 -3.981349,0.0969 z m 47.425554,-5.59842 c -1.81286,-2.32549 -3.48022,-4.3312 -3.70525,-4.45713 -0.33303,-0.18637 -0.24844,-0.27168 0.45479,-0.45859 0.70412,-0.18716 0.90994,-0.15293 1.11275,0.18503 0.13686,0.22806 1.36859,1.85166 2.73718,3.60799 l 2.48834,3.19333 0.13073,-3.46199 0.13072,-3.46199 -0.81718,-0.81405 -0.81719,-0.81404 0.68646,-0.25089 c 0.37755,-0.13798 0.83225,-0.30226 1.01043,-0.36506 0.17818,-0.0628 0.25523,-0.003 0.17122,0.13296 -0.084,0.13594 0.77798,1.43218 1.91554,2.88054 1.13756,1.44836 2.29224,2.95804 2.56596,3.35484 0.27372,0.39679 0.56406,0.72291 0.64522,0.72471 0.19433,0.004 0.5104,-8.07411 0.33389,-8.53407 -0.0832,-0.21687 0.0565,-0.40575 0.35873,-0.48477 0.43563,-0.11392 0.46719,-0.0562 0.26291,0.48117 -0.12769,0.33584 -0.24525,2.25497 -0.26125,4.26473 -0.016,2.00976 -0.1,4.35146 -0.18662,5.20377 l -0.15754,1.54966 -2.57145,-3.37428 c -1.4143,-1.85586 -2.60354,-3.33704 -2.64277,-3.2915 -0.0392,0.0455 -0.14462,1.92387 -0.23422,4.17409 -0.0896,2.25022 -0.19719,4.1256 -0.23909,4.16751 -0.0419,0.0419 -1.55945,-1.82648 -3.37231,-4.15197 z m -57.368207,-0.69825 c -2.450545,-5.88189 -2.90296,-6.83871 -3.122067,-6.60286 -0.413853,0.44547 -2.784921,7.31197 -2.648054,7.66864 0.161525,0.42093 -0.04127,0.47885 -0.549357,0.15689 -0.249805,-0.1583 -0.270239,-0.33762 -0.07915,-0.69468 0.895864,-1.67393 2.88177,-7.55729 2.892286,-8.56855 0.0113,-1.08622 0.04112,-1.135 0.551638,-0.90239 0.57483,0.26191 0.871055,0.86499 3.329558,6.77852 0.853467,2.05289 1.624348,3.8155 1.713067,3.91692 0.243572,0.27844 2.831013,-6.96444 2.653358,-7.42741 -0.112968,-0.29439 -0.0482,-0.36117 0.24222,-0.24973 0.218034,0.0837 0.501822,0.15213 0.630643,0.15213 0.128822,0 0.07076,0.25194 -0.12902,0.55987 -0.199784,0.30793 -1.058049,2.46346 -1.90726,4.79006 -0.84921,2.3266 -1.612131,4.30837 -1.695378,4.40393 -0.08325,0.0956 -0.930364,-1.69604 -1.882482,-3.98134 z m -10.277255,-0.48465 c -0.598419,-0.29779 -0.773253,-0.52189 -0.667381,-0.85547 0.294978,-0.92939 0.55345,-4.56498 0.342792,-4.82163 -0.119545,-0.14564 -0.772929,-0.52502 -1.451961,-0.84306 l -1.234604,-0.57826 -1.747008,1.55265 c -0.960854,0.85396 -1.794536,1.68124 -1.852627,1.8384 -0.07064,0.19112 -0.19092,0.20334 -0.363186,0.0369 -0.174666,-0.16875 1.092522,-1.43016 3.937074,-3.91914 2.307053,-2.01867 4.309746,-3.67031 4.450427,-3.67031 0.140681,0 0.204843,0.30793 0.142579,0.6843 -0.285306,1.72461 -0.911353,9.6189 -0.814922,10.27593 0.05933,0.40424 0.09927,0.72782 0.08876,0.71907 -0.0105,-0.009 -0.383989,-0.19748 -0.829945,-0.4194 z m 0.07151,-7.63306 c 0.09416,-0.87928 0.131069,-1.71071 0.08201,-1.84763 -0.04906,-0.13691 -0.692767,0.28191 -1.430473,0.93072 l -1.341285,1.17966 1.09245,0.65826 c 0.600848,0.36204 1.167518,0.66262 1.259271,0.66796 0.09175,0.005 0.24386,-0.7097 0.338024,-1.58897 z m 87.130212,6.35308 c 0.0665,-0.25436 -0.1775,-2.77263 -0.54226,-5.59615 -0.36477,-2.82351 -0.62176,-5.25802 -0.57109,-5.41001 0.0507,-0.15199 2.03076,1.30445 4.40021,3.23654 2.36945,1.93209 4.49261,3.51758 4.71812,3.52332 0.22904,0.006 0.0256,0.21738 -0.46092,0.47929 l -0.87092,0.46887 -0.87092,-0.81137 c -0.479,-0.44626 -1.38069,-1.21719 -2.00375,-1.71319 l -1.13283,-0.90181 -1.32965,0.79843 c -0.73131,0.43914 -1.32547,0.85442 -1.32036,0.92285 0.17032,2.28161 0.42207,4.19968 0.59467,4.53078 0.16275,0.31217 0.0951,0.4927 -0.25484,0.67997 -0.40042,0.2143 -0.45712,0.18119 -0.35546,-0.20752 z m 2.30438,-6.97125 c -0.0147,-0.15249 -2.42706,-2.06775 -2.80806,-2.2294 -0.1188,-0.0504 -0.15744,0.11756 -0.0859,0.37326 0.0716,0.25569 0.20366,1.11119 0.29353,1.90111 l 0.16338,1.43621 1.22559,-0.66705 c 0.67408,-0.36687 1.21921,-0.73323 1.21142,-0.81413 z m 7.97687,1.09382 c 0,-0.60035 -5.26948,-7.87248 -5.85799,-8.08431 -0.21453,-0.0772 0.42264,-0.67085 1.66926,-1.55521 1.49204,-1.05846 2.23396,-1.43033 2.85365,-1.43033 1.48771,0 2.47034,1.50981 2.19174,3.36762 l -0.15706,1.04736 2.08387,0.75403 c 3.05368,1.10495 4.14795,1.13042 5.10135,0.11872 0.49884,-0.52935 0.58194,-0.5636 0.36698,-0.15126 -0.36804,0.70598 -1.71338,1.82382 -2.23666,1.85844 -0.95953,0.0635 -1.78031,-0.12218 -3.91827,-0.88627 l -2.25773,-0.80689 -0.69727,0.55599 -0.6973,0.556 0.80543,1.17063 c 0.44299,0.64386 1.13189,1.54248 1.53092,1.99694 l 0.7255,0.82629 -0.75321,0.53634 c -0.64895,0.46208 -0.75321,0.47951 -0.75321,0.12591 z m -0.56384,-5.82051 c 0.99341,-0.90734 1.21611,-1.74023 0.72123,-2.69724 -0.81168,-1.56961 -2.66355,-2.02304 -4.05866,-0.99375 l -0.76312,0.563 1.38144,1.92534 c 0.75981,1.05893 1.50439,1.92533 1.65466,1.92533 0.15027,0 0.62926,-0.3252 1.06445,-0.72268 z m -111.717729,4.37862 c -0.639564,-0.52375 -0.652478,-0.57315 -0.220395,-0.84299 0.252437,-0.15765 1.028442,-1.06958 1.724454,-2.02651 l 1.265477,-1.73987 -2.34543,-1.76294 -2.34543,-1.76294 -1.374618,1.82635 c -0.756041,1.00449 -1.374621,2.01996 -1.374621,2.2566 0,0.38301 -0.08394,0.37048 -0.764528,-0.11414 l -0.764526,-0.54439 0.606705,-0.65452 c 1.399576,-1.50986 5.681034,-7.49509 5.532938,-7.73472 -0.302503,-0.48945 0.240837,-0.2409 1.1126,0.50896 0.479006,0.41203 0.682488,0.67832 0.452182,0.59177 -0.314693,-0.11827 -0.768726,0.31588 -1.82731,1.7473 -0.774715,1.04757 -1.370111,1.93363 -1.323102,1.96902 2.214601,1.66733 4.13539,3.08421 4.366276,3.2208 0.394619,0.23346 3.175256,-3.43112 2.9186,-3.8464 -0.212099,-0.34319 0.266154,-0.10951 0.919393,0.44921 0.36449,0.31175 0.09666,0.75671 -2.681291,4.45469 -1.697426,2.2596 -3.020789,4.21424 -2.940804,4.34366 0.255289,0.41307 -0.2349,0.23567 -0.93657,-0.33894 z m 122.390739,-6.06419 c 0.0944,-0.3611 -0.69156,-1.43705 -3.02496,-4.14091 -1.7339,-2.00917 -3.20754,-3.65304 -3.27477,-3.65304 -0.24903,0 -2.19639,1.78217 -2.31649,2.11999 -0.0755,0.21235 -0.24989,0.27262 -0.44318,0.15316 -0.22036,-0.13619 0.68748,-1.06201 2.94198,-3.00026 1.79337,-1.54181 3.3256,-2.73836 3.40496,-2.659 0.0794,0.0794 -0.18031,0.3978 -0.57705,0.70765 -0.39674,0.30985 -1.03431,0.8433 -1.41682,1.18545 l -0.69548,0.62209 3.14183,3.60809 c 1.72801,1.98446 3.30373,3.66677 3.50161,3.73847 0.26743,0.0969 0.13789,0.34543 -0.50472,0.96827 -0.65757,0.63735 -0.83396,0.72113 -0.73691,0.35004 z M 35.03839,223.0235 c -2.054976,-1.6174 -2.134849,-1.75364 -1.527811,-2.60615 0.280083,-0.39334 0.699735,-0.87318 0.932562,-1.06632 0.397814,-0.32999 0.398513,-0.30317 0.01162,0.44521 -0.572199,1.1068 -0.524212,1.42211 0.371736,2.44254 1.45434,1.6564 2.723758,1.99735 3.845165,1.03275 0.885001,-0.76124 0.851939,-1.66555 -0.132164,-3.61505 -0.891819,-1.76668 -0.973648,-3.02242 -0.262069,-4.02174 1.108574,-1.55685 3.271073,-1.4861 4.711227,0.15415 0.806213,0.91823 0.896535,1.24445 0.510105,1.8424 -0.188882,0.29228 -0.242041,0.22894 -0.245024,-0.29195 -0.0047,-0.8244 -1.019019,-2.06789 -1.952053,-2.39315 -0.950132,-0.33121 -2.204585,0.20974 -2.541532,1.09598 -0.215682,0.56728 -0.11781,0.96338 0.62398,2.52538 1.169033,2.46165 1.176827,3.54432 0.03375,4.6874 -0.702923,0.70292 -1.029139,0.84601 -1.928466,0.84588 -0.899755,-1.3e-4 -1.313395,-0.18194 -2.451018,-1.07733 z m 138.4632,-2.11247 c 0.26496,-0.46208 -6.79661,-7.57561 -7.32145,-7.37532 -0.20863,0.0796 0.007,-0.25403 0.47821,-0.74142 0.86645,-0.89542 1.18014,-1.11602 0.86741,-0.61001 -0.19274,0.31186 6.54486,7.18885 7.04314,7.18885 0.51241,0 0.36379,0.35855 -0.47061,1.13541 -0.43175,0.40197 -0.70026,0.58309 -0.5967,0.40249 z M 30.835841,219.0293 c -0.344467,-0.36667 -0.438069,-0.6392 -0.275402,-0.80187 0.135529,-0.13553 0.700552,-1.18551 1.255606,-2.33329 l 1.00919,-2.08688 -1.110941,-1.11094 -1.110941,-1.11094 -2.429104,0.89586 c -2.336817,0.86182 -2.840398,0.93147 -2.840398,0.39283 0,-0.13686 0.10341,-0.18492 0.229799,-0.10681 0.126389,0.0781 2.53409,-0.71754 5.350446,-1.76812 2.816356,-1.05058 5.181673,-1.84912 5.256261,-1.77453 0.142206,0.14221 -0.818695,2.26522 -3.3179,7.33053 l -1.494796,3.02961 z m 2.971088,-7.14638 c 0.421507,-0.835 0.717615,-1.56694 0.65802,-1.62654 -0.0596,-0.0596 -0.654801,0.10198 -1.322674,0.35907 -0.667872,0.25709 -1.417286,0.5403 -1.66536,0.62938 -0.404708,0.14531 -0.366362,0.26393 0.37325,1.15463 0.453364,0.54597 0.906668,0.9947 1.007341,0.99716 0.100676,0.002 0.527915,-0.67869 0.949423,-1.5137 z m 141.583411,5.24059 c -0.92297,-0.78891 -0.89945,-0.9045 0.0921,-0.45272 0.88586,0.40363 2.02015,-0.12528 2.91353,-1.35855 0.84801,-1.17065 0.91034,-2.09652 0.20176,-2.99733 -0.70601,-0.89755 -1.82687,-0.85866 -3.71055,0.12874 -2.12709,1.11499 -3.55833,1.01177 -4.51039,-0.32529 -1.03603,-1.45496 -0.59938,-3.2668 1.09153,-4.52925 0.53633,-0.40042 0.76669,-0.44145 1.2288,-0.21884 0.55873,0.26915 0.55626,0.27426 -0.14045,0.29081 -1.0835,0.0257 -2.40125,1.46134 -2.40125,2.61603 0,0.9933 0.88121,2.12866 1.65215,2.12866 0.23683,0 1.18792,-0.39191 2.11353,-0.87092 2.27245,-1.17599 3.43773,-1.1823 4.59515,-0.0249 0.70447,0.70447 0.84604,1.02831 0.84604,1.93531 0,0.5991 -0.18451,1.36613 -0.41003,1.70451 -0.49152,0.73753 -2.37499,2.73452 -2.56558,2.72022 -0.0742,-0.006 -0.5225,-0.34148 -0.99634,-0.7465 z M 22.099005,208.6273 c -2.358296,-3.20015 -2.338652,-3.16711 -1.803261,-3.03302 0.25923,0.0649 1.137717,-0.4223 2.176513,-1.20715 0.958012,-0.72381 2.728714,-2.02785 3.934894,-2.89787 1.422076,-1.02574 2.146522,-1.70311 2.060693,-1.92678 -0.232132,-0.60492 0.01575,-0.3736 0.687678,0.64176 0.360206,0.54431 0.501459,0.92855 0.315052,0.85702 -0.532111,-0.20419 -7.479436,5.13137 -7.576965,5.81912 -0.09378,0.66133 1.269142,2.92298 1.995825,3.31189 0.332045,0.1777 0.713552,0.17932 1.21322,0.005 0.400876,-0.13973 0.728866,-0.21304 0.728866,-0.16289 0,0.0996 -1.616937,1.12767 -1.771211,1.12619 -0.05228,-5.1e-4 -0.934862,-1.14053 -1.961304,-2.53339 z m 161.369215,0.76597 c 0.11212,-0.29862 -0.80755,-1.10706 -3.63558,-3.19589 -2.08212,-1.53788 -3.92511,-2.84965 -4.09553,-2.91505 -0.17304,-0.0664 -0.73214,0.4891 -1.26614,1.25798 -0.52596,0.75729 -1.0897,1.38114 -1.25276,1.38633 -0.16306,0.005 0.81673,-1.46043 2.1773,-3.25693 1.36058,-1.7965 2.47378,-3.43386 2.47378,-3.63857 0,-0.30262 0.0698,-0.31429 0.37325,-0.0624 0.40034,0.33225 0.52397,0.86902 0.14641,0.63568 -0.19693,-0.12171 -2.01267,2.06653 -2.01267,2.42557 0,0.29049 7.61802,5.75207 8.02491,5.75329 0.57936,0.002 0.54583,0.11608 -0.33391,1.13883 -0.41202,0.47901 -0.6816,0.69104 -0.59906,0.47118 z m 5.10374,-12.19437 c -10e-4,-0.0838 0.34255,-0.97963 0.76465,-1.99068 1.88157,-4.50694 4.06891,-11.1363 5.44681,-16.50814 4.00419,-15.61062 4.57657,-32.74077 1.61852,-48.43883 -1.48915,-7.90273 -3.76638,-15.73237 -6.67028,-22.93393 -0.48107,-1.19303 -0.84258,-2.16914 -0.80337,-2.16914 0.19569,0 2.75066,4.45962 4.06296,7.09178 4.61246,9.25149 7.50094,19.2274 8.50178,29.36245 1.70885,17.30495 -1.31742,33.94236 -8.8487,48.64711 -1.65372,3.22888 -4.06507,7.33784 -4.07237,6.93938 z M 18.555716,194.6831 C 12.285279,184.1417 8.3617301,171.91593 7.1539557,159.15523 6.7466733,154.8521 6.8069497,145.84154 7.2713088,141.61241 8.6510038,129.0469 12.390788,117.57389 18.440002,107.34879 c 0.704124,-1.19019 1.308589,-2.13562 1.343254,-2.10096 0.03467,0.0347 -0.420962,1.29028 -1.012506,2.79024 -9.7769013,24.79112 -10.9033877,50.98394 -3.273942,76.12501 0.873446,2.87823 3.194514,9.35191 4.0943,11.41939 0.291352,0.66945 0.486543,1.26037 0.433759,1.31315 -0.05278,0.0528 -0.713902,-0.94285 -1.469151,-2.21252 z m 142.229534,-3.42607 c -7.96242,-1.67136 -12.31803,-15.17111 -12.38449,-38.38443 -0.0119,-4.17136 -0.10517,-6.36903 -0.26718,-6.2981 -0.99516,0.43572 -4.55379,1.39753 -6.08056,1.64343 -1.0177,0.16391 -4.15301,0.36837 -6.96736,0.45435 l -5.11698,0.15633 -0.16094,6.5941 c -0.22833,9.35503 -1.00372,14.45005 -2.93807,19.30584 -3.35162,8.41352 -10.21165,13.54029 -18.118,13.54029 -3.9342,0 -6.68692,-0.97818 -8.836698,-3.14013 -5.132768,-5.16182 -3.607657,-14.88967 2.704638,-17.2514 1.91223,-0.71546 2.96331,-0.77318 2.96331,-0.16272 0,0.36761 -0.34203,0.56587 -1.5437,0.89481 -2.439,0.66764 -3.94818,1.98273 -5.128842,4.46926 -1.711965,3.60545 -1.013582,8.26859 1.672722,11.16885 1.74218,1.88093 5.37466,2.97656 8.44984,2.54864 6.61369,-0.92032 10.63252,-5.04088 12.81568,-13.1401 1.02537,-3.80396 1.51438,-8.25796 1.80514,-16.44164 0.1522,-4.28363 0.21967,-7.84548 0.14993,-7.91521 -0.19679,-0.19679 -2.90619,0.6446 -4.24629,1.31866 -0.66243,0.33319 -1.69645,1.05935 -2.29784,1.61369 -0.67158,0.61905 -1.23891,0.95205 -1.47055,0.86316 -1.60016,-0.61404 2.7962,-3.76463 6.59022,-4.7228 l 1.36859,-0.34563 0.0546,-2.70927 c 0.31837,-15.78392 1.55693,-24.55222 4.22727,-29.92684 0.65411,-1.31654 1.22653,-2.4753 1.27204,-2.57503 0.0455,-0.0997 -0.56964,0.1099 -1.36701,0.46584 -2.08429,0.9304 -4.43109,1.71472 -8.54155,2.85466 -7.97543,2.21179 -10.28148,3.79038 -11.99588,8.21171 -0.38296,0.98759 -0.70507,1.46408 -0.98976,1.46408 -0.74707,0 -0.73639,-0.44544 0.0564,-2.34969 1.77587,-4.26583 4.3719,-6.15815 10.95912,-7.98841 4.50404,-1.25146 7.84129,-2.39913 10.87551,-3.74006 5.3719,-2.37405 6.73843,-2.32192 5.06316,0.19317 -2.49236,3.74179 -3.51746,11.39945 -3.51746,26.27605 v 9.32512 l 5.66098,-0.14545 c 6.0147,-0.15453 8.1176,-0.44516 11.1452,-1.54032 l 1.7517,-0.63364 0.29799,-4.0374 c 0.74316,-10.06901 2.4067,-17.20085 5.34891,-22.93159 1.58035,-3.07817 3.66145,-5.32368 5.51304,-5.94862 3.47275,-1.17208 4.63781,0.0815 4.8189,5.18489 0.27208,7.66765 -3.26456,17.36359 -8.84106,24.23837 l -0.68781,0.84794 v 12.34028 c 0,17.81788 0.86298,26.05078 3.28918,31.37896 1.59202,3.49624 2.87293,4.26356 6.53201,3.91294 0.69211,-0.0663 1.0242,0.65522 0.41004,0.8909 -0.73477,0.28196 -3.28782,0.38422 -4.29809,0.17216 z m -3.98528,-53.31493 c 2.43132,-3.6771 4.34379,-8.01196 5.50283,-12.47286 1.93358,-7.44195 0.83847,-14.86372 -1.70178,-11.53328 -2.31489,3.03498 -3.99075,9.94192 -4.99077,20.56909 -0.39875,4.23748 -0.46177,5.48994 -0.27627,5.48994 0.0597,0 0.71944,-0.9238 1.46599,-2.05289 z M 53.700963,188.78205 c -7.841939,-1.65773 -13.288394,-6.9695 -15.324556,-14.9456 -0.377909,-1.48035 -0.472091,-2.68951 -0.455466,-5.8476 0.01879,-3.56944 0.08982,-4.20781 0.686564,-6.17024 2.319798,-7.6288 8.087692,-13.27289 15.401209,-15.07063 l 1.775381,-0.43641 -1.974695,-1.07978 c -5.730696,-3.13359 -8.917791,-9.44639 -8.485519,-16.8076 0.514209,-8.75654 5.701489,-15.17566 13.975854,-17.29474 8.259199,-2.11519 16.514778,0.74953 19.472216,6.75694 2.738927,5.56355 1.789547,12.36227 -2.234828,16.00412 -2.60497,2.35736 -5.178302,3.25874 -8.765759,3.07045 -5.179307,-0.27184 -9.057716,-4.24893 -9.087631,-9.31886 -0.004,-0.68116 0.117843,-1.07848 0.359198,-1.17109 0.487247,-0.18698 0.531592,-0.0818 0.857326,2.03373 0.352668,2.29042 1.146385,3.87129 2.630549,5.23935 1.502233,1.3847 3.080278,2.06693 5.118268,2.21275 6.513139,0.46601 11.432989,-4.44331 11.432989,-11.40853 0,-4.74264 -2.364727,-8.93139 -6.229714,-11.03498 -2.905098,-1.58115 -7.274992,-2.04444 -10.794176,-1.14439 -2.491115,0.63712 -4.113196,1.52944 -6.031629,3.31805 -3.756667,3.50244 -5.688614,8.40636 -5.655146,14.35462 0.04937,8.77389 4.662018,15.00294 11.872677,16.0332 2.827392,0.40398 2.998996,1.37326 0.244566,1.3814 -2.188602,0.006 -4.813699,0.69233 -7.270677,1.89963 -6.126271,3.01031 -9.954512,9.6489 -10.386269,18.01092 -0.46284,8.96406 3.78471,16.57238 10.803942,19.3523 1.506025,0.59645 1.997015,0.6633 4.90827,0.66826 3.003631,0.005 3.391711,-0.0504 5.429497,-0.77699 5.417636,-1.93166 10.515708,-6.37495 14.656292,-12.77388 1.897941,-2.93311 4.3039,-7.34736 5.696272,-10.45104 1.129497,-2.51771 1.755011,-3.19838 1.914126,-2.08291 0.133771,0.93778 -3.238118,7.8515 -5.935363,12.16985 -3.841999,6.15113 -8.489465,10.81696 -13.207993,13.26019 -4.5618,2.36208 -10.302226,3.12625 -15.395775,2.04951 z M 24.961749,101.64026 c 0.203142,-0.53389 -8.691877,-7.277363 -9.366531,-7.100937 -0.260933,0.06824 0.468157,-1.086343 1.798472,-2.848038 1.96213,-2.598387 2.295561,-2.931616 2.710949,-2.709308 0.79302,0.424412 0.834403,0.751438 0.07827,0.618533 -0.619082,-0.108818 -0.826968,0.05215 -1.866753,1.445456 -0.643549,0.862353 -1.233193,1.732359 -1.31032,1.933348 -0.09551,0.248899 0.540775,0.868409 1.995213,1.942612 1.174495,0.867446 2.164274,1.537906 2.199509,1.489908 0.03524,-0.048 0.587727,-0.77861 1.227758,-1.623582 0.640033,-0.844974 1.163695,-1.726494 1.163695,-1.958935 0,-0.353196 0.06325,-0.370127 0.38503,-0.103075 0.211767,0.175752 0.290525,0.385419 0.175019,0.46593 -0.38411,0.267731 -2.550723,3.214892 -2.550723,3.469648 0,0.324657 3.689265,3.022009 4.133308,3.022009 0.359404,0 2.359754,-2.385505 2.988371,-3.563763 0.291766,-0.546876 0.309388,-0.780768 0.07968,-1.057546 -0.401333,-0.483577 -0.0054,-0.450796 0.542372,0.0449 0.418191,0.378457 0.318934,0.564998 -1.820536,3.421471 -2.567144,3.427469 -2.782584,3.689019 -2.562784,3.111359 z M 179.83894,97.755363 c -1.26357,-1.608092 -2.40746,-3.066336 -2.54197,-3.240542 -0.18115,-0.234594 -0.14064,-0.276853 0.1562,-0.162947 0.38412,0.1474 1.17149,-0.409295 6.00847,-4.248167 0.86222,-0.684294 1.97999,-1.563077 2.48394,-1.952851 0.63566,-0.491642 0.86837,-0.834571 0.75985,-1.119755 -0.0966,-0.253923 -0.0705,-0.315947 0.0682,-0.16224 0.17626,0.195233 3.22301,4.072281 4.32615,5.505094 0.138,0.179248 -0.0161,0.43115 -0.42941,0.701964 -0.63168,0.413896 -0.63904,0.411923 -0.36609,-0.09809 0.1532,-0.286264 0.19565,-0.658134 0.0943,-0.826381 -0.41989,-0.697219 -2.67849,-3.416328 -2.83774,-3.416328 -0.0949,0 -0.88659,0.572045 -1.7594,1.27121 -0.87281,0.699167 -1.80214,1.423038 -2.06517,1.608606 -0.45436,0.320551 -0.40241,0.42978 1.0406,2.187946 0.83536,1.017802 1.45181,1.917574 1.36989,1.999491 -0.24242,0.242426 -0.56366,0.17015 -0.56366,-0.126819 0,-0.151667 -0.56931,-0.991224 -1.26514,-1.86568 -1.10234,-1.385333 -1.31959,-1.549971 -1.68832,-1.279456 -2.16668,1.589591 -3.27184,2.545202 -3.39603,2.936496 -0.18963,0.597481 0.0997,1.12015 1.65408,2.98791 0.96388,1.158217 1.38411,1.490804 1.75959,1.392617 0.47226,-0.123499 0.47475,-0.108522 0.0586,0.351359 -0.23909,0.2642 -0.46506,0.48037 -0.50213,0.48037 -0.0371,0 -1.10124,-1.315715 -2.36482,-2.923806 z M 30.808206,93.757623 c 0,-0.258639 -1.725617,-2.033984 -4.102623,-4.220855 -3.043923,-2.800441 -4.215806,-3.734587 -4.541226,-3.619967 -0.241231,0.08497 0.004,-0.309918 0.545026,-0.877524 1.071583,-1.12429 1.180775,-1.20122 0.98654,-0.695051 -0.07911,0.206144 1.328073,1.703457 3.624758,3.856932 4.476823,4.197668 4.564455,4.227563 6.488773,2.213592 1.547511,-1.619607 1.724783,-2.211734 0.97444,-3.254859 l -0.567327,-0.788698 0.84637,0.744574 c 0.465504,0.409517 0.94783,0.824503 1.071832,0.922195 0.236056,0.185971 -0.470989,1.042161 -3.501669,4.240318 -1.205277,1.271882 -1.824894,1.774172 -1.824894,1.479343 z M 174.26119,90.752772 c -0.41058,-0.257857 -1.39108,-1.12922 -2.1789,-1.936367 l -1.4324,-1.467537 1.1105,-1.089867 1.11049,-1.08987 -0.50052,1.011656 c -0.45211,0.913784 -0.46678,1.092296 -0.1516,1.845201 0.19191,0.458453 0.81427,1.253456 1.38302,1.766677 1.23274,1.112381 2.53676,1.263078 3.61186,0.417399 0.89492,-0.703942 0.86369,-1.913113 -0.11237,-4.350699 -0.88959,-2.221664 -0.84101,-3.179035 0.22148,-4.364655 1.33479,-1.489473 3.41138,-1.360527 5.03515,0.312652 0.9799,1.009725 1.19816,1.735 0.73691,2.448739 -0.19438,0.300779 -0.24196,0.262617 -0.24503,-0.196539 -0.006,-0.902818 -0.88355,-2.37641 -1.69815,-2.851681 -1.03979,-0.606651 -1.87111,-0.543902 -2.76558,0.208744 -0.9866,0.830169 -0.99054,1.621462 -0.0191,3.834813 0.41058,0.935461 0.74609,2.129972 0.74557,2.654468 -0.002,2.479497 -2.81152,4.12794 -4.85133,2.846866 z M 37.725327,86.704526 c 0.361086,-0.461869 0.675011,-0.0348 -3.903234,-5.31002 -3.315428,-3.820154 -3.465109,-3.954163 -3.964768,-3.549636 -0.259577,0.210153 -0.33044,0.217441 -0.213186,0.02192 0.284281,-0.474029 2.171931,-1.895978 2.034191,-1.532334 -0.148181,0.391205 6.037517,7.621651 6.912652,8.08018 0.755862,0.396038 1.606557,-0.0065 3.103726,-1.468786 1.156604,-1.129626 1.328618,-1.886341 0.665308,-2.926775 -0.215732,-0.338385 0.0065,-0.167343 0.493966,0.380092 0.487412,0.547436 0.887871,1.057705 0.889906,1.133931 0.0036,0.135943 -4.865977,4.478666 -5.843904,5.211603 -0.45524,0.341194 -0.47013,0.337768 -0.174657,-0.04018 z m 130.484163,-1.654248 -0.82617,-0.685441 0.51513,-0.466186 c 0.75706,-0.685128 0.63746,-0.886722 -0.52606,-0.886722 -2.84829,0 -5.31486,-2.694076 -4.6549,-5.084247 0.13677,-0.495347 1.43382,-2.298204 3.0881,-4.292392 1.56876,-1.89108 2.79813,-3.585345 2.73194,-3.765034 -0.0689,-0.186981 0.19493,-0.10221 0.61683,0.198212 0.82475,0.587271 1.15127,0.999414 0.79179,0.999414 -0.25057,0 -4.38347,4.890881 -5.44165,6.439666 -0.50261,0.735646 -0.5951,1.119296 -0.50407,2.091029 0.17834,1.903856 1.72284,3.164518 3.87703,3.164518 0.95084,0 1.03973,-0.08173 3.92713,-3.610864 1.62485,-1.985974 2.93871,-3.777581 2.91971,-3.981349 -0.0502,-0.53756 0.1653,-0.453046 1.27873,0.5016 0.69171,0.593067 0.83648,0.81221 0.47459,0.718372 -0.43316,-0.112319 -1.11467,0.589996 -4.05244,4.176154 -2.33063,2.845012 -3.49429,4.459273 -3.4217,4.746639 0.0605,0.239503 0.0925,0.432447 0.0711,0.428766 -0.0214,-0.0037 -0.41069,-0.315143 -0.86509,-0.692135 z M 45.987099,79.653893 c 0,-0.469672 -5.838387,-8.444771 -6.649039,-9.082431 l -0.557944,-0.438879 0.937409,-0.620349 c 0.796678,-0.527215 0.937411,-0.557682 0.937411,-0.202938 0,0.53645 6.336596,9.167586 6.805947,9.270446 0.225322,0.04938 0.02177,0.330968 -0.559877,0.774545 -0.711915,0.542916 -0.913907,0.609136 -0.913907,0.299606 z m 4.189397,-2.918426 c 0.182856,-0.231145 0.25045,-0.565137 0.150207,-0.742208 -1.186286,-2.095449 -5.509846,-8.879036 -5.855418,-9.18704 -0.4295,-0.382808 -0.29826,-0.500753 2.422743,-2.177301 1.582263,-0.974912 2.964406,-1.772568 3.071429,-1.772568 0.107024,0 0.382917,0.287426 0.613096,0.638724 l 0.418509,0.638724 -0.618905,-0.405523 c -0.587585,-0.384999 -0.67028,-0.373248 -1.63406,0.232197 -0.558337,0.350745 -1.469004,0.922814 -2.023705,1.271265 l -1.008551,0.633548 0.557111,0.921667 c 0.306412,0.506917 0.95629,1.558497 1.444174,2.336845 l 0.887062,1.415179 1.710846,-1.078011 c 0.940964,-0.592906 1.790589,-1.207043 1.888057,-1.364748 0.126854,-0.205256 0.26802,-0.177324 0.496761,0.09829 0.256152,0.308646 0.256981,0.385029 0.0042,0.385029 -0.46693,0 -3.726918,2.063441 -3.726881,2.358965 2e-5,0.139587 0.556058,1.121605 1.235639,2.182262 0.926958,1.446745 1.372376,1.928465 1.783132,1.928465 0.651966,0 4.184905,-2.147017 4.226045,-2.568228 0.01575,-0.161352 0.01324,-0.517317 -0.0056,-0.791035 -0.0296,-0.430253 0.01588,-0.413399 0.33578,0.124417 0.203514,0.342148 0.373993,0.691849 0.37884,0.777115 0.0049,0.08527 -1.306893,0.972054 -2.914984,1.970638 -1.608092,0.998582 -3.203742,1.990655 -3.545889,2.2046 -0.578792,0.361922 -0.598947,0.359745 -0.289621,-0.03127 z M 153.60794,74.450006 c -2.35844,-1.126672 -3.59717,-2.93401 -3.59717,-5.248381 0,-1.563288 0.64598,-3.006049 1.88652,-4.213452 1.5838,-1.541482 2.68138,-1.995871 4.82108,-1.995871 2.12046,0 3.23846,0.455458 4.76462,1.941041 2.41915,2.354843 2.15934,5.918399 -0.615,8.435159 -1.96703,1.784409 -4.88025,2.218381 -7.26005,1.081504 z m 4.62851,0.06719 c 3.21123,-1.075161 4.51205,-4.66602 2.88847,-7.973523 -1.49577,-3.04716 -4.28151,-4.167837 -6.94129,-2.792415 -1.728,0.893586 -2.67736,2.703228 -2.68532,5.118692 -0.0137,4.161133 3.18066,6.838336 6.73814,5.647246 z m -13.58655,-5.0613 c -0.68429,-0.322357 -1.06051,-0.595424 -0.83604,-0.606814 0.44403,-0.02253 2.6097,-4.792135 2.35962,-5.196765 -0.15652,-0.253268 -5.86622,-2.634662 -5.99496,-2.500375 -0.33608,0.350554 -2.07561,5.021327 -1.97131,5.293125 0.107,0.278845 -0.0756,0.268731 -0.97274,-0.05388 -1.02531,-0.368696 -1.07372,-0.424902 -0.67534,-0.784044 0.54127,-0.487963 4.55395,-10.168854 4.39097,-10.593559 -0.0899,-0.234181 0.12851,-0.216536 0.8558,0.06915 0.72728,0.285681 0.91134,0.462021 0.72128,0.691021 -0.27464,0.33093 -2.27045,4.902016 -2.16872,4.967123 0.26599,0.170232 5.83575,2.385259 6.01468,2.391966 0.31613,0.01185 2.18019,-4.524284 2.02518,-4.928219 -0.15766,-0.410855 -0.10851,-0.407778 1.07952,0.06758 0.92259,0.369148 0.95591,0.417716 0.55891,0.814718 -0.2322,0.232193 -1.34823,2.641519 -2.48008,5.354057 -1.62553,3.895644 -1.99691,5.005393 -1.76758,5.281724 0.36542,0.440295 0.35833,0.438635 -1.13919,-0.266812 z M 64.336017,68.778617 c 0.330119,-0.402045 -3.437143,-10.059342 -4.166606,-10.681016 -0.451176,-0.384508 -0.374998,-0.442193 1.567559,-1.186997 2.433657,-0.933098 3.821535,-1.043613 4.730328,-0.376672 1.140945,0.837314 1.397202,2.066585 0.769361,3.690649 -0.148154,0.383237 -0.100547,0.446236 0.238801,0.316016 0.615865,-0.23633 2.195525,0.48623 2.772985,1.268405 0.371353,0.503002 0.497669,1.064685 0.497669,2.212972 0,1.350976 -0.08615,1.628796 -0.70556,2.275321 -0.38806,0.405046 -1.283863,0.960303 -1.990675,1.233905 -0.706814,0.273602 -1.891347,0.738985 -2.632296,1.034185 -0.809463,0.322495 -1.241163,0.407605 -1.081566,0.213232 z m 3.567072,-1.574218 c 0.592062,-0.208892 1.277994,-0.562173 1.52429,-0.78507 1.025984,-0.9285 0.176306,-3.922395 -1.334984,-4.703913 -0.886674,-0.458517 -1.805226,-0.37356 -3.361557,0.310912 l -1.038592,0.456771 0.851929,2.115091 c 0.758133,1.882229 1.531612,2.986012 2.092455,2.986012 0.10449,0 0.674396,-0.170911 1.266459,-0.379803 z m -2.861203,-5.566157 c 1.32562,-0.602071 1.794391,-1.625707 1.379164,-3.011612 -0.521216,-1.739666 -2.034614,-2.393949 -3.973755,-1.717961 -0.430998,0.150247 -0.784132,0.346204 -0.784741,0.43546 -0.0032,0.470248 1.904538,4.758469 2.116199,4.756777 0.136859,-0.0011 0.705268,-0.209292 1.263133,-0.462664 z m 9.464995,3.041812 c 0.168503,-0.659057 -2.773806,-10.579147 -3.238586,-10.919002 -0.314126,-0.229696 0.289083,-0.48335 3.132351,-1.317176 1.93677,-0.567983 3.54935,-1.004744 3.583513,-0.970581 0.03416,0.03416 0.134271,0.397811 0.222465,0.808107 0.130718,0.608143 0.109181,0.665526 -0.116556,0.310533 -0.152299,-0.239503 -0.511213,-0.43546 -0.797591,-0.43546 -0.469742,0 -3.828926,0.911465 -4.217409,1.144333 -0.12162,0.0729 1.185218,5.081057 1.365511,5.233009 0.05446,0.04589 3.685371,-1.050668 4.206024,-1.270249 0.306056,-0.129078 0.43546,-0.06942 0.43546,0.200757 0,0.211425 -0.195957,0.373798 -0.43546,0.360828 -0.239503,-0.01297 -1.254655,0.224878 -2.255895,0.52855 l -1.820434,0.552131 0.171243,0.793295 c 0.363086,1.682034 1.121867,3.856205 1.437117,4.117839 0.244565,0.202971 0.903309,0.115962 2.548066,-0.336556 2.11651,-0.582311 3.010119,-1.148826 2.672871,-1.694505 -0.08788,-0.142195 -0.03061,-0.173809 0.132388,-0.07307 0.158005,0.09765 0.287282,0.430488 0.287282,0.739636 0,0.509908 -0.317608,0.650916 -3.421472,1.519024 -1.88181,0.526316 -3.553272,1.003454 -3.71436,1.060307 -0.178862,0.06313 -0.247585,-0.07381 -0.176528,-0.351747 z M 124.24549,62.69338 c -1.76622,-0.373498 -1.7029,-0.34107 -1.28516,-0.658157 0.23979,-0.182011 0.6118,-1.377485 0.95263,-3.061332 l 0.55921,-2.762706 -0.95981,-2.836067 c -0.52789,-1.559836 -1.0685,-2.976036 -1.20135,-3.147109 -0.27599,-0.355395 0.0631,-0.399156 1.25142,-0.161495 0.53545,0.107089 0.71746,0.266046 0.64109,0.559877 -0.0587,0.225681 0.26887,1.448134 0.72783,2.716562 l 0.83447,2.306233 2.08575,-2.136871 c 1.82085,-1.865478 2.15095,-2.105215 2.5991,-1.887615 0.35283,0.171319 0.39502,0.254524 0.13491,0.266099 -0.20814,0.0093 -1.3462,0.996626 -2.52901,2.194142 l -2.15057,2.1773 -0.64247,2.96191 c -0.48111,2.217991 -0.57261,3.046086 -0.36433,3.297055 0.2834,0.341471 0.2226,0.357484 -0.65371,0.172174 z M 83.523736,62.387027 c 0.19585,-0.124112 0.901255,-2.790571 1.691814,-6.395118 0.745747,-3.400237 1.412498,-6.238844 1.481669,-6.308016 0.150774,-0.150772 -0.126291,-0.579882 3.725274,5.769636 1.980544,3.265037 3.284752,5.172431 3.547451,5.188116 0.251639,0.01503 0.170161,0.103352 -0.206656,0.224031 -1.308879,0.419176 -1.590007,0.291427 -2.335166,-1.061131 -0.394758,-0.716538 -1.082614,-1.874094 -1.528567,-2.572348 l -0.810822,-1.269553 -1.625749,0.274215 c -0.894161,0.150819 -1.698958,0.348511 -1.788437,0.439317 -0.221146,0.224428 -1.34677,5.265034 -1.221134,5.468317 0.108691,0.175864 -0.5059,0.46536 -0.974893,0.459212 -0.187629,-0.0025 -0.171596,-0.07928 0.04522,-0.216678 z m 4.100615,-6.482215 c 0.524065,-0.121627 1.001369,-0.269665 1.060679,-0.328974 0.05931,-0.05931 -0.367088,-0.928138 -0.947544,-1.93073 l -1.055381,-1.822896 -0.301684,1.041996 c -0.165928,0.573098 -0.376984,1.544111 -0.469013,2.157806 -0.188047,1.253994 -0.0944,1.302254 1.712943,0.882798 z m 25.189009,5.025571 c -0.65224,-0.06679 -0.86887,-0.169827 -0.64629,-0.30739 0.23409,-0.144674 0.50512,-1.878891 0.90093,-5.764735 0.31137,-3.056797 0.51131,-5.612634 0.4443,-5.679638 -0.067,-0.067 -0.98272,-0.146181 -2.03493,-0.175948 -1.56065,-0.04415 -1.92897,-0.130796 -1.99923,-0.470304 -0.0474,-0.2289 0.012,-0.35554 0.13191,-0.281423 0.34486,0.213134 8.55537,0.974406 9.19352,0.852416 0.31602,-0.06041 0.53926,-0.04203 0.49607,0.04084 -0.0432,0.08287 -0.15779,0.371493 -0.25469,0.641375 -0.13616,0.379246 -0.22293,0.41503 -0.38206,0.157553 -0.26191,-0.423774 -3.51266,-0.794386 -3.64001,-0.414989 -0.0488,0.145425 -0.33107,2.663229 -0.62724,5.59512 -0.51941,5.141774 -0.52249,5.342416 -0.0868,5.660981 0.50767,0.371219 0.60734,0.361478 -1.49546,0.146143 z M 97.869054,60.15387 c -1.779489,-1.09918 -1.751632,-0.971832 -2.171236,-9.925861 l -0.08454,-1.804049 h 0.955949 c 0.701696,0 0.90467,0.08273 0.763148,0.311043 -0.264429,0.426601 -0.113929,7.807693 0.182281,8.93987 0.503183,1.92326 2.602364,2.857068 4.496894,2.000413 2.206,-0.997496 2.17494,-0.904172 2.0225,-6.07624 -0.0738,-2.50415 -0.23535,-4.748957 -0.35897,-4.98846 -0.20054,-0.388532 -0.083,-0.434645 1.09037,-0.427894 1.02522,0.0059 1.21791,0.06417 0.87407,0.264334 -0.40762,0.237301 -0.42965,0.647026 -0.29059,5.40458 0.0828,2.831297 0.24741,5.455745 0.36591,5.832107 0.20648,0.65585 0.17978,0.684294 -0.64254,0.684294 -0.78741,0 -0.85797,-0.06139 -0.85797,-0.746503 0,-0.835171 -0.26817,-0.950198 -0.77825,-0.333817 -1.02478,1.238359 -4.171795,1.728009 -5.567024,0.866183 z"
         style="fill:#ffffff;stroke-width:0.99624276" />
    </g>
  </g>
</svg>
